<svg xmlns="http://www.w3.org/2000/svg" xmlns:xlink="http://www.w3.org/1999/xlink" width="1536" height="824" viewBox="0 0 1536 824">
  <defs>
    <linearGradient id="linear-gradient" x1="1" y1="1" x2="0" gradientUnits="objectBoundingBox">
      <stop offset="0" stop-color="#10181b"/>
      <stop offset="1" stop-color="#5f6466"/>
    </linearGradient>
    <clipPath id="clip-Custom_Size_1">
      <rect width="1536" height="824"/>
    </clipPath>
  </defs>
  <g id="Custom_Size_1" data-name="Custom Size – 1" clip-path="url(#clip-Custom_Size_1)">
    <rect width="1536" height="824" fill="#fff"/>
    <rect id="Rectangle_1" data-name="Rectangle 1" width="1536" height="824" fill="url(#linear-gradient)"/>
    <g id="Component_3_1" data-name="Component 3 – 1" transform="translate(65.593 81.053)">
      <text id="_5th_Sem_Mini_Project_Project_Topic_-_Ai_based_Chat_Bot_Project_Members_-_Abhinav_Saxena_1CR18EC003_Akash_Aman_1CR18EC010_Animesh_Chodu_1CR18EC018_" data-name="5th Sem Mini Project Project Topic - Ai based Chat Bot  Project Members - Abhinav Saxena ( 1CR18EC003 )                                                Akash Aman ( 1CR18EC010 )                                                Animesh Chodu ( 1CR18EC018 )    " transform="translate(54.661 312.944)" fill="rgba(177,177,177,0.63)" stroke="rgba(142,142,142,0.59)" stroke-width="1.2" font-size="91" font-family="Inter-ExtraBold, Inter" font-weight="800"><tspan x="0" y="0">5th Sem Mini Project</tspan><tspan font-size="55"><tspan x="0" y="55">Project Topic - Ai based Chat Bot</tspan></tspan><tspan font-size="46"><tspan x="0" y="110">Project Members - Abhinav Saxena </tspan><tspan y="110" font-size="36">( 1CR18EC003 )</tspan><tspan x="0" y="165" xml:space="preserve">                                           Akash Aman</tspan><tspan y="165" xml:space="preserve" font-size="36"> ( 1CR18EC010 )</tspan><tspan x="0" y="220" xml:space="preserve">                                           Animesh Pradhan</tspan><tspan y="220" xml:space="preserve" font-size="36"> ( 1CR18EC018 )</tspan></tspan><tspan font-size="36"><tspan x="0" y="275" xml:space="preserve">                                                       </tspan><tspan y="275" font-size="46">Anup Gupta</tspan><tspan y="275" xml:space="preserve"> ( 1CR18EC020 )</tspan></tspan></text>
      <g id="logo" transform="translate(0.005 -0.001)">
        <path id="Path_2" data-name="Path 2" d="M245.03,278.82a7.353,7.353,0,0,1-3.618-3.5,10.187,10.187,0,0,1-.841-4.405c-.215-4.579.889-7.465,3.37-8.8a7.971,7.971,0,0,1,5.737-.061,4.629,4.629,0,0,1,2.466,3.6c0,.826-.092.887-1.235.792-1.112-.092-1.258-.217-1.468-1.251-.6-2.942-4.368-3.029-5.806-.129-.956,1.927-.9,7.342.092,9.5,1.259,2.725,3.646,3.585,6.257,2.253,1.662-.847,1.691-.842,1.652.25a1.447,1.447,0,0,1-.96,1.365,11.083,11.083,0,0,1-5.64.388Zm43.358-.048a6.446,6.446,0,0,1-3.088-3.12c-.833-1.593-1.187-6.851-.6-9.01.877-3.257,3.069-5.121,6.021-5.121,4.319,0,6.656,3.744,6.229,9.981-.264,3.873-1.5,6.2-3.808,7.186a7.656,7.656,0,0,1-4.748.083Zm4.476-2.2c1.271-1.371,1.666-2.916,1.636-6.4-.038-4.484-1.081-6.757-3.292-7.172-2.724-.511-4.179,1.637-4.41,6.506-.172,3.618.223,5.5,1.461,6.968a2.349,2.349,0,0,0,2.305,1.009,2.542,2.542,0,0,0,2.294-.912Zm20.1,1.8a5.2,5.2,0,0,1-2.463-2.719c-.918-1.783-1-2.226-1-5.294,0-2.914.115-3.59.872-5.207,1.188-2.538,2.483-3.414,5.271-3.566s4.1.637,5.432,3.3c.821,1.641.938,2.252.951,4.988.025,4.979-.987,7.487-3.474,8.616a6.107,6.107,0,0,1-5.6-.121Zm4.782-1.56c1.383-1.088,2-3.53,1.826-7.259-.175-3.815-.819-5.419-2.493-6.214-3.2-1.517-5.193,1.173-5.193,6.994,0,3.53.437,5.148,1.744,6.454a3.433,3.433,0,0,0,4.115.025Zm10.513,1.56c-2.661-1.405-3.751-3.88-3.763-8.565,0-2.505.115-3.093.977-4.806,1.322-2.626,2.269-3.26,5.108-3.42,3.495-.2,5.68,1.173,6.227,3.9.2,1.01.184,1.025-1.13,1.025-1.252,0-1.347-.07-1.545-1.118a2.714,2.714,0,0,0-3.031-2.371q-4.149,0-4.144,7.067c0,4.845,1.589,7.394,4.607,7.394a4.826,4.826,0,0,0,2.3-.518c.664-.465.739-.8.739-3.3v-2.793l-1.912-.1c-1.694-.092-1.927-.184-2.019-.848-.1-.734-.034-.748,3.075-.748h3.182v3.977c0,3.6-.065,4.038-.693,4.623-1.591,1.484-5.719,1.8-7.981.6ZM221.554,271v-7.814h-2.019c-1.9,0-2.013-.043-1.912-.748.1-.734.2-.75,5.177-.84l5.07-.092v.84c0,.8-.084.84-2,.84h-2v15.627h-2.326Zm8.313-.831v-8.645h8.313v.831c0,.826-.022.831-2.993.831h-2.993v5.983h2.827c2.793,0,2.827.009,2.827.831s-.033.831-2.827.831h-2.827v6.321h3.159c3.148,0,3.159,0,3.159.831v.831h-8.645Zm24.687.083.092-8.561h2l.188,7.505,6.362-.19.1-7.315,2.161-.208v17.374l-1.081-.1-1.08-.1-.1-7.647-6.382-.19v8h-2.338Zm14.959,0,.092-8.561,1.26-.1,1.26-.1,6.938,14.172.018-14.133h2v17.329l-2.626-.2-3.342-6.776-3.342-6.777v13.72h-2.338Zm30.664,8.14c-.092-.232-.122-4.085-.073-8.561l.092-8.14,2.161-.208v15.671h2.993c2.971,0,2.993.006,2.993.831v.831h-4c-2.926,0-4.044-.114-4.163-.422Zm43.077-3.579v-4l-2.493-4.34a50.8,50.8,0,0,1-2.493-4.642c0-.166.518-.3,1.153-.3,1.119,0,1.208.1,3.075,3.481a28.188,28.188,0,0,0,2.111,3.487,14.889,14.889,0,0,0,1.634-2.57c2.257-4.01,2.589-4.405,3.692-4.405.536,0,.974.112.973.25s-1.2,2.255-2.661,4.705l-2.661,4.456v7.879h-2.327Zm-250.527,2.82C82.585,275.09,76.416,265.768,77,253.876c.314-6.344,2.5-11.288,6.774-15.277,4.234-3.958,9.014-5.681,15.713-5.66,3.47.01,7.719.585,8.249,1.113a49.974,49.974,0,0,1-.707,7.766,19.115,19.115,0,0,1-2.892-.57c-3.487-.835-5.649-.849-8.062-.053-8.761,2.89-12.147,14.373-6.753,22.9a15.66,15.66,0,0,0,5.814,5.02c1.679.787,2.271.883,5.379.866A14.964,14.964,0,0,0,106,269.26a12.2,12.2,0,0,1,2.071-.627c.138.138,1.132,7.59,1.026,7.688-.056.051-1.149.431-2.429.844-3.029.976-10.864,1.239-13.944.467Zm21.191-.734c.1-.5.585-3.532,1.076-6.733s1.968-12.777,3.282-21.28l2.386-15.461,10.309-.184.695,2.252c.382,1.239,2.216,6.923,4.077,12.633s3.735,11.769,4.167,13.466c.8,3.154.878,3.185,1.5.592.2-.826,2.4-7.669,4.9-15.211l4.541-13.715h10.11l.2,1.08c.11.595,1.106,6.916,2.214,14.048s2.317,14.912,2.689,17.29c1.569,10.023,1.821,11.827,1.669,11.977a35.073,35.073,0,0,1-4.556.159h-4.4l-.195-1.08c-.574-3.19-4.163-27.665-4.279-29.176-.071-.922-.275-.441-.99,2.327-.7,2.709-5.126,17.07-8.282,26.858l-.352,1.09-8.647-.184L132.4,266.673c-2-6.035-4.142-12.913-4.763-15.286-.965-3.685-1.154-4.145-1.305-3.159-.237,1.548-3.559,29.017-3.548,29.333a20.765,20.765,0,0,1-4.522.25h-4.531Zm60.57.5c-.092-.228-.12-10.29-.072-22.36l.086-21.945h8.978c8.372,0,9.138.05,11.346.745a12.142,12.142,0,0,1,6.688,4.523c1.423,2.13,1.828,3.775,1.8,7.305a9.912,9.912,0,0,1-.909,4.9,13.307,13.307,0,0,1-8.576,7l-1.549.39.791,1.039c2.036,2.673,12.933,17.972,13.087,18.374.143.373-.78.459-5.121.459h-5.3l-6.129-9.13c-3.371-5.022-6.241-9.136-6.378-9.143a84.067,84.067,0,0,0-.25,9.13v9.143h-4.166c-3.029,0-4.211-.114-4.325-.416Zm14.853-24.857a6.565,6.565,0,0,0,4.313-9.17,5.262,5.262,0,0,0-1.738-2.051,13.982,13.982,0,0,0-7.184-1.243l-1.752.218v12.584h2.577a18.92,18.92,0,0,0,3.78-.336Zm30.551-10.279V233.6h2.338l-.177,17.124-1.081.1-1.08.1Zm6.318-.021V233.6h2.672l6.8,13.8.184-13.8h1.992l-.177,17.124-2.487.206-6.93-14.171-.06,14.133h-2Zm15.046,8.425c-.359-.145-.631-2.44-.29-2.44a11.98,11.98,0,0,1,1.32.5,9.036,9.036,0,0,0,2.882.5c2.019,0,3.32-1.018,3.32-2.6,0-1.377-.973-2.439-3.387-3.706-3.666-1.927-4.805-3.422-4.442-5.845.449-3,3.409-4.34,7.913-3.6,1.154.191,1.247.29,1.247,1.326a3.8,3.8,0,0,1-.084,1.115c-.046,0-.682-.22-1.413-.485-2.924-1.054-5.486-.2-5.486,1.83,0,1.193,1.175,2.345,3.634,3.579a15.52,15.52,0,0,1,3.074,2.094,2.937,2.937,0,0,1,1.271,2.926c0,3.6-1.847,5.022-6.484,4.989a18.463,18.463,0,0,1-3.076-.184Zm14.215-7.556v-7.818l-1.912-.1c-1.694-.092-1.927-.184-2.019-.848l-.106-.748h10.4l-.106.748c-.092.663-.325.76-2.013.848l-1.906.1-.092,7.714-.092,7.714-1.08.1-1.081.1Zm8.313-.869v-8.689l2.161.208v16.958l-1.08.1-1.081.1Zm8.124,8.205c-.092-.241-.126-3.752-.072-7.8l.092-7.361-2-.1c-1.744-.084-2-.184-2-.762,0-.632.252-.67,5.07-.757l5.07-.092v.84c0,.8-.084.84-2,.84h-2v15.627h-1.009c-.551,0-1.084-.2-1.177-.439Zm10.228-.234c-1.941-1.184-2.2-2.31-2.211-9.8l-.014-6.65h2.327l.166,7.032c.149,6.286.233,7.105.794,7.724a3.746,3.746,0,0,0,3.908.686c1.717-.711,1.948-1.8,1.948-9.114v-6.495h2.376l-.107,6.9c-.119,7.654-.275,8.308-2.235,9.63-1.543,1.039-5.315,1.086-6.954.087Zm15.136.467a68.9,68.9,0,0,1-.237-7.829v-7.592h-2c-1.906,0-2-.037-2-.831v-.831h10.308v.831c0,.794-.092.831-1.989.831h-1.989l-.178,15.461-.843.1a1.723,1.723,0,0,1-1.081-.139Zm8.065-.033c-.006-.142-.009-4-.008-8.572v-8.313l8.378-.184-.107.758c-.1.719-.268.764-3.184.853l-3.076.092v5.628h2.993c2.958,0,2.993.009,2.993.819s-.066.82-2.909.918l-2.909.092v6.318l3.159.047c3.084.046,3.159.066,3.159.831s-.033.785-4.24.877a17.733,17.733,0,0,1-4.251-.166Zm20.761-.067c-1.162-.5-3.036-2.968-3.425-4.515a20.289,20.289,0,0,1-.367-3.918c0-4.482,1.421-7.357,4.151-8.4a5.858,5.858,0,0,1,7.605,3.138c.586,1.276.7,2.174.708,5.356,0,3.341-.092,4.022-.772,5.4-1.111,2.257-2.371,3.045-5.035,3.151a9.772,9.772,0,0,1-2.866-.213Zm4.74-2.094c2.245-2.259,2.2-10.5-.065-12.771a3.407,3.407,0,0,0-4.263-.1c-2.762,2.173-2.386,12.088.509,13.542A3.719,3.719,0,0,0,330.838,248.485Zm7.25,1.979c-.092-.232-.122-4.085-.073-8.561l.092-8.14,8.479-.184v.842c0,.841,0,.842-3.159.842h-3.159v5.652h2.993c2.971,0,2.993.006,2.993.831s-.022.831-2.993.831h-2.993v8.313h-1.009c-.551,0-1.081-.19-1.17-.422Zm-289.434-27.4c-9.12-.65-17.987-3.676-22.38-7.642s-7.158-9.227-7.2-13.731l-.012-1.147,1.667,1.87c7.037,7.892,19.033,11.267,33.392,9.383,3.727-.489,9.254-1.634,18.308-3.791a119.938,119.938,0,0,1,26.409-3.295l7.124-.211-1.707-.927a63.58,63.58,0,0,0-10.214-3.687c-2.251-.6-9.7-2.348-11.472-2.7-9.636-1.892-23.479-5.243-29.76-7.2-10.852-3.385-17.421-6.846-22.278-11.736a18.065,18.065,0,0,1-4.947-7.915c-.295-1.221.011-1.156,1.894.4,8.468,7,14.966,9.064,40.293,12.82,2.012.3,5.828.918,8.479,1.377,7.409,1.285,12.429,2.035,20.941,3.125,4.293.551,8.767,1.222,9.941,1.495a9.074,9.074,0,0,0,2.268.362c.073-.073-.585-.65-1.462-1.285-4.5-3.242-9.78-5.777-18.886-9.07a128.552,128.552,0,0,0-14.3-4.45c-9.6-2.636-13.906-4.187-19.95-7.186a45.578,45.578,0,0,1-16.814-13.551c-2.874-3.814-7.076-12.885-5.965-12.885a8.922,8.922,0,0,1,1.882,1.744c6.892,7.567,12.348,11.489,21.137,15.2,6.461,2.728,12.493,4.417,24.367,6.822,22.042,4.464,45.867,13.982,61.016,24.375,9.728,6.673,17.787,15.269,22.2,23.677,1.886,3.591,3.611,7.881,3.3,8.2-.117.117-5.34.036-11.607-.184-19.885-.683-35.473-.81-49.465-.4-13.1.381-34.486,1.391-42.894,2.027a111.715,111.715,0,0,1-13.3.112Zm124.854-2.351c3.35-13.087,3.729-23.694,1.309-36.584a103.629,103.629,0,0,0-10.554-29.443c-3.233-6.2-6.04-10.579-12.07-18.842-11.945-16.371-15.5-21.74-18.583-28.1-2.57-5.284-3.252-7.884-3.25-12.3.005-5.965,1.626-10.035,5.566-13.975A17.315,17.315,0,0,1,148.953,76a19.975,19.975,0,0,1,14.582,6.057,18.88,18.88,0,0,1,4.554,8.284c.679,2.161.767,3.11.767,8.26,0,6.543-.075,6.832-3.259,12.389a41.609,41.609,0,0,0-3.742,11.97c-.123.869-.346,1.579-.495,1.579a4.336,4.336,0,0,1-.918-1.744c-1.317-3.57-1.5-5.121-1.31-10.875.142-4.222.074-5.938-.292-7.334-.263-1-.786-4.222-1.161-7.144-.918-7.158-1.453-9.594-2.647-12.042-1.679-3.441-4.405-5.082-8.438-5.082-3.712,0-5.951,1.156-8,4.135-2.408,3.5-3.143,8.673-1.966,13.849,1.738,7.642,9.52,17.945,26.083,34.537a89.453,89.453,0,0,1,9.983,11.363c7.533,10.095,12.656,20.992,14.6,31.063a56.456,56.456,0,0,1-.173,21.284,55.267,55.267,0,0,1-7.374,16.936c-1.951,2.959-5.965,8.146-6.3,8.146-.1,0-.07-.411.059-.918ZM125.3,170.1c-6.39-3.228-10.01-4.654-22.445-8.845-14.133-4.762-15.248-5.159-21-7.473-10.864-4.368-16.117-7.532-22.427-13.5a53.563,53.563,0,0,1-13.265-21.2c-1.239-3.782-1.772-6.208-1.249-5.68.184.184,1.672,1.9,3.314,3.824,12.338,14.437,24.881,22.888,50.039,33.715,13.847,5.96,14.966,6.468,17.712,8.051,5.9,3.4,12.188,8.917,13.821,12.114a5.032,5.032,0,0,1,.6,1.443c-.059.037-2.35-1.066-5.094-2.452Zm9.144-8.627a65.164,65.164,0,0,0-15.413-11.523c-12.812-7.04-22.924-13.093-27.532-16.482a58.489,58.489,0,0,1-9.757-10.1c-3.724-5.207-7.675-14.576-9.3-22.061-.463-2.13-1.493-9.4-1.5-10.594-.006-.944.583-.287,1.611,1.8A145.87,145.87,0,0,0,81,106.418a90.341,90.341,0,0,0,21.969,22.626c9.163,6.9,18.2,13.841,21.166,16.244,6.528,5.29,11.667,11.945,13.63,17.65.367,1.068.668,1.993.668,2.057,0,.416-.911-.388-3.99-3.518Zm11.542-4.431c-4.456-6.791-13.527-17.061-24.632-27.891-10.138-9.886-14.735-15.412-17.663-21.236a33.5,33.5,0,0,1-3.753-17.668c.144-4.147.983-8.931,1.566-8.931a10.245,10.245,0,0,1,1.014,2.743c3.051,10.675,9.281,20.626,22.739,36.323,9.2,10.729,16.316,20.457,19.3,26.378a35.187,35.187,0,0,1,3.425,10.724,6.908,6.908,0,0,1,0,2.294,19,19,0,0,1-1.993-2.743Z" transform="translate(-19.061 -75.994)" fill="#a1d0f2"/>
        <path id="Path_5" data-name="Path 5" d="M254.146,303.32c-2.806-1-4.19-3.378-4.457-7.651-.282-4.512,1.155-7.929,3.8-9.032a6.785,6.785,0,0,1,5.091.129c1.333.669,2.667,2.478,2.667,3.623,0,.665-.166.782-1.111.782-1.009,0-1.148-.124-1.506-1.318-1.055-3.521-5.271-2.958-6.328.845a18.151,18.151,0,0,0,.125,7.658,6.791,6.791,0,0,0,1.518,2.638c.9.861,1.271.984,2.965.984a3.779,3.779,0,0,0,2.582-.582c.889-.8,1.089-.734,1.089.385,0,.853-.184,1.028-1.556,1.5a6.6,6.6,0,0,1-4.877.045Zm43.758.114c-2.721-.786-4.405-4.016-4.405-8.443,0-5.573,2.321-8.81,6.318-8.81,4.177,0,6.665,3.975,6.215,9.931-.429,5.69-3.671,8.608-8.126,7.321ZM300.968,302c1.936-.809,2.661-2.667,2.661-6.842a19.745,19.745,0,0,0-.432-4.727,4.231,4.231,0,0,0-3.528-2.92c-2.7,0-4.011,2.878-3.779,8.275.161,3.74.789,5.371,2.37,6.149,1.3.642,1.321.642,2.711.062Zm22.167,1.56c-1.315-.25-3.52-2.747-4.056-4.589-.714-2.462-.564-6.944.295-8.8a5.783,5.783,0,0,1,10.661-.874c1.01,1.965,1.358,6.551.713,9.431-.832,3.72-3.743,5.57-7.617,4.836Zm2.727-1.4c2.019-.768,2.961-3.113,2.926-7.29-.05-5.737-2.215-8.478-5.512-6.975-2.042.931-3.108,6.44-2.047,10.574.856,3.332,2.384,4.55,4.634,3.7Zm12.222,1.233a6.826,6.826,0,0,1-3.854-4.234c-.867-2.611-.609-7.643.5-9.831,1.161-2.282,2.995-3.238,5.89-3.071,2.79.161,4.7,1.615,5.268,4.018.217.918.193.934-1.046.831-1.114-.092-1.3-.236-1.542-1.166-.842-3.27-5.177-3.192-6.642.119a16.1,16.1,0,0,0-.1,9.006c1.079,2.7,3.573,3.934,5.938,2.946l1.23-.514-.192-6.174-1.912-.1c-1.64-.085-1.912-.192-1.912-.748,0-.595.247-.649,3-.649h3l-.184,8.479-1.257.614a10.416,10.416,0,0,1-6.193.473Zm-107.172-7.654-.092-7.731-1.992-.166c-1.553-.129-2.019-.295-2.1-.748-.1-.534.316-.582,5.068-.582,4.956,0,5.179.028,5.179.665,0,.591-.222.665-2,.665h-2v15.627H231Zm8.058-.748v-8.479h4.156c3.909,0,4.156.039,4.156.652,0,.595-.275.661-3.075.748l-3.075.092v5.652l2.909.092c2.616.086,2.909.161,2.909.734s-.295.649-2.909.734l-2.909.092v6.318l3.242.092c3.2.092,3.242.106,3.242.918v.82h-8.645Zm24.606,0v-8.479H265.9v7.315h6.65v-7.315h2v16.958h-2v-7.984H265.9v7.984h-2.327Zm15.3,0v-8.479l2.493.008,6.761,13.79.028-6.9.028-6.9h2v16.958h-2.55L280.7,289.335l-.184,14.133h-1.652Zm30.591,0v-8.479h2v15.295h2.993c2.971,0,2.993.006,2.993.831v.831h-7.984Zm42.894,4.455V295.42l-2.37-4.205c-1.3-2.313-2.435-4.313-2.514-4.455s.427-.249,1.123-.249c1.193,0,1.322.107,2.183,1.744.5.96,1.377,2.551,1.946,3.537l1.029,1.792,1.994-3.538c1.911-3.391,2.04-3.538,3.1-3.538h1.11l-2.638,4.505-2.638,4.505v7.948h-2.327Zm-250.527,2.845a22.609,22.609,0,0,1-8.437-4.313c-5.008-4.5-7.686-11.655-7.279-19.446.334-6.388,2.506-11.294,6.766-15.276,4.234-3.958,9.014-5.681,15.713-5.66,3.47.01,7.719.585,8.249,1.113a49.783,49.783,0,0,1-.708,7.768,9.63,9.63,0,0,1-2.06-.424,16.879,16.879,0,0,0-8.488-.348c-6.493,1.9-10.634,8.845-9.6,16.1.792,5.583,3.733,9.844,8.26,11.966,1.684.789,2.262.882,5.379.859a16.81,16.81,0,0,0,5.57-.713,10,10,0,0,1,2.078-.568c0,.066.232,1.788.517,3.826a33.733,33.733,0,0,1,.416,3.8c-.056.051-1.149.431-2.429.844-3.029.976-10.864,1.239-13.944.467Zm21.278-1.231c.135-.777,1.688-10.765,3.452-22.194l3.207-20.781h10.279l.773,2.327c3.563,10.733,7.547,23.3,8.2,25.842.8,3.154.878,3.185,1.5.592.2-.826,2.406-7.669,4.907-15.211l4.548-13.715h10.1l.356,2.078c.2,1.143,1.259,7.914,2.363,15.045s2.5,16.152,3.108,20.039,1.029,7.144.941,7.232a64.712,64.712,0,0,1-9.027,0c0-.174-1.145-7.729-1.665-10.978-.693-4.336-2.65-18.022-2.735-19.119-.071-.922-.275-.441-.99,2.327-.7,2.709-5.126,17.07-8.282,26.858l-.351,1.09-8.647-.184-3.634-10.972c-2-6.035-4.142-12.913-4.763-15.286-.965-3.685-1.155-4.145-1.305-3.159-.237,1.548-3.559,29.017-3.548,29.333a20.649,20.649,0,0,1-4.51.25h-4.518l.245-1.413Zm60.484,1c-.092-.229-.12-10.29-.072-22.36l.086-21.945,8.057-.092c8.756-.1,11.243.193,14.512,1.69a10.279,10.279,0,0,1,5.048,4.611c.938,1.693.98,1.946.98,5.925,0,3.865-.062,4.273-.887,5.818a14.048,14.048,0,0,1-8.351,6.5l-1.588.4.791,1.039c2.036,2.673,12.933,17.972,13.087,18.374.143.373-.78.459-5.121.459h-5.3l-6.129-9.13c-3.371-5.022-6.241-9.136-6.378-9.143a84.068,84.068,0,0,0-.25,9.13v9.143h-4.166c-3.029,0-4.211-.114-4.325-.416Zm14.85-24.859a6.565,6.565,0,0,0,4.313-9.17,5.261,5.261,0,0,0-1.738-2.051,13.981,13.981,0,0,0-7.182-1.247l-1.752.218v12.588h2.577a18.924,18.924,0,0,0,3.78-.336Zm31.466-1.917-.918-.117V258.254h2.327v8.459a76.153,76.153,0,0,1-.25,8.573,3.4,3.4,0,0,1-1.164,0Zm5.57-.017c-.092-.092-.166-3.956-.166-8.589v-8.42h2.53l3.474,7.052,3.474,7.052.092-7.074.092-7.074.908.1.908.1.092,8.289c.059,5.48-.028,8.361-.257,8.5a2.776,2.776,0,0,1-1.357.065c-.949-.14-1.221-.567-4.4-6.933l-3.386-6.785-.166,6.883c-.165,6.845-.17,6.883-.918,6.936a1.7,1.7,0,0,1-.918-.111Zm15.051.048c-.409-.107-.582-.485-.582-1.275v-1.122l1.247.525a9.675,9.675,0,0,0,2.977.551c2.223.037,3.423-.935,3.423-2.771,0-1.463-.918-2.427-3.824-4.012-2.644-1.443-3.434-2.193-3.82-3.629-.975-3.618,2.147-6.115,6.813-5.449,1.936.275,2,.316,2.1,1.357l.1,1.073-1.392-.491c-3.191-1.126-5.631-.323-5.631,1.851,0,1.26.994,2.294,3.35,3.487,3.663,1.856,4.63,3.029,4.63,5.612a3.319,3.319,0,0,1-1.031,2.683,5.523,5.523,0,0,1-2.245,1.506,20.073,20.073,0,0,1-6.124.113Zm14.959-.03-.918-.117V259.584h-2c-1.773,0-2-.074-2-.665,0-.636.222-.665,5.154-.665,4.891,0,5.154.033,5.154.649,0,.562-.275.663-2.019.748l-2.019.1.036,7.7a60.912,60.912,0,0,1-.225,7.825,3.315,3.315,0,0,1-1.175,0Zm7.4-8.415v-8.612h2v8.479c0,6.548-.092,8.484-.416,8.5a9.792,9.792,0,0,0-1,.137c-.542.1-.582-.478-.582-8.5Zm8.236.7-.092-7.825-1.912-.1c-1.64-.085-1.912-.192-1.912-.748,0-.614.264-.649,4.988-.649s4.988.034,4.988.649c0,.556-.275.663-1.912.748l-1.912.1-.332,15.57-1.817.079ZM292.17,275.3a5.369,5.369,0,0,1-1.278-.888c-1.6-1.451-1.714-2.058-1.714-9.334v-6.829h2v6.068c0,6.671.259,8.2,1.551,9.211a3.955,3.955,0,0,0,3.786.338c1.436-.769,1.644-1.9,1.644-8.951v-6.666h2.386l-.112,6.9c-.127,7.766-.367,8.673-2.617,9.808a10.971,10.971,0,0,1-5.641.348Zm14.548-.022c-.534-.115-.582-.764-.582-7.914v-7.79h-2c-1.773,0-2-.074-2-.665,0-.636.222-.665,5.154-.665s5.154.028,5.154.665c0,.591-.222.665-2,.665h-2v7.775c0,7.13-.048,7.787-.582,7.914a3.139,3.139,0,0,1-1.164.015Zm7.73-8.472v-8.558H318.6c3.909,0,4.156.039,4.156.652,0,.595-.275.661-3.075.748l-3.075.092-.092,2.9-.092,2.9,2.922.092c2.743.092,2.928.142,3.029.844.1.729.028.748-2.909.748h-3.016v6.66h3.12c2.3,0,3.168.117,3.295.446.34.887-.335,1.051-4.34,1.051h-4.074v-8.563Zm20.765,8.26c-2.585-1.126-3.96-4.363-3.746-8.823.256-5.364,2.4-8.155,6.257-8.155,2.552,0,4.016.958,5.217,3.414.826,1.69.927,2.254.925,5.22,0,4.637-1.01,7.035-3.506,8.325a7.622,7.622,0,0,1-5.148.019Zm4.667-1.955c2.792-2.791,2.221-12.043-.826-13.323-2.174-.918-4.228.34-4.977,3.037a24.769,24.769,0,0,0,.018,8.193c.873,3.144,3.7,4.169,5.782,2.093Zm8.235,2.188-.748-.144V258.254h4.156c3.909,0,4.156.039,4.156.653,0,.595-.275.661-3.075.748l-3.075.092-.092,2.9-.092,2.9,2.922.092c2.743.092,2.928.142,3.028.844.1.729.028.748-2.909.748h-3.016v4.156a16.92,16.92,0,0,1-.25,4.111c-.137-.025-.586-.11-1-.189Z" transform="translate(-28.157 -100.65)" fill="#9b9b9b"/>
        <path id="Path_6" data-name="Path 6" d="M231.754,303.195l-.748-.106V287.841h-2c-1.773,0-2-.074-2-.665,0-.636.222-.665,5.012-.665,4.594,0,5,.049,4.9.582-.092.466-.521.6-2.18.681l-2.069.1-.092,7.714L232.5,303.3Zm7.37-.032c-.076-.076-.139-3.854-.139-8.4v-8.26h4.181c3.8,0,4.171.052,4.069.582-.092.5-.567.6-3.184.677l-3.072.092V293.8l2.906.092c2.458.082,2.923.184,3.017.678.1.519-.212.582-2.906.582H240.98v6.982h3.159c2.787,0,3.159.069,3.159.582s-.413.582-4.018.582a33.407,33.407,0,0,1-4.156-.139Zm14.311-.315c-2.609-1.591-3.586-3.881-3.586-8.41,0-5.217,2.173-8.1,6.092-8.076,2.814.017,4.589,1.251,5.176,3.6.2.813.144.866-.983.866-.862,0-1.2-.145-1.2-.515a3.437,3.437,0,0,0-1.969-2.753c-3.551-1.238-6.024,3.255-5.032,9.141.642,3.818,2.138,5.541,4.8,5.541a6.72,6.72,0,0,0,2.518-.551c1.382-.689,1.341-.693,1.341.128,0,1.544-5.114,2.276-7.163,1.026Zm10.489-7.942v-8.4h.82c.818,0,.82.011.918,3.741l.092,3.741,6.817.189v-7.67h2v16.547l-.826.158a1.679,1.679,0,0,1-1-.017,26.469,26.469,0,0,1-.174-4.109v-3.934h-6.983V303.3h-1.663Zm14.959.028V286.51h2.334l3.374,6.982a63.757,63.757,0,0,0,3.654,6.982,43.942,43.942,0,0,0,.281-6.982V286.51h1.5l-.092,8.313c-.071,6.241-.2,8.319-.5,8.339a10.184,10.184,0,0,0-1.016.141c-.5.092-1.266-1.214-4.156-7.091L280.714,289l-.166,7.122c-.165,7.094-.169,7.122-.918,7.177l-.748.055v-8.425Zm18.053,7.881c-3.127-1.907-4.387-8.454-2.463-12.8,1.727-3.9,6.5-4.977,9.325-2.092,1.522,1.56,2.121,3.957,1.962,7.863-.15,3.684-.96,5.616-2.9,6.924a6.376,6.376,0,0,1-5.923.107Zm5.025-1.358c1.478-1.3,2-3.462,1.8-7.5-.174-3.637-.906-5.353-2.643-6.2a2.533,2.533,0,0,0-2.493-.166,3.015,3.015,0,0,0-2.046,1.94c-.97,1.953-1.317,6.035-.746,8.778.806,3.873,3.641,5.333,6.123,3.153Zm7.513-6.55v-8.4H311.5l-.1,15.461,2.862.092c2.442.082,2.862.184,2.862.665,0,.5-.437.569-3.824.569h-3.824Zm12.708,8.009c-2.182-1.076-3.4-3.91-3.4-7.926,0-4.4,1.437-7.291,4.137-8.323a5.126,5.126,0,0,1,5.9,1.2c1.406,1.478,1.878,2.82,2.151,6.122.219,2.645-.466,5.957-1.547,7.475-1.345,1.891-4.9,2.6-7.244,1.447Zm5.1-1.607c2.047-2.17,2.442-8.438.74-11.752-1.527-2.973-4.9-2.915-6.412.113-.551,1.109-.665,2-.665,5.323,0,4.447.5,6.1,2.122,6.981a3.2,3.2,0,0,0,4.216-.663Zm10.116,1.544c-2.547-1.355-3.91-4.956-3.548-9.372.223-2.721,1.009-4.735,2.275-5.8,2.64-2.222,7.317-1.738,8.94.923.944,1.548.854,2.228-.3,2.228-.8,0-1.031-.212-1.468-1.337-1.009-2.57-4.124-2.9-6.025-.642-1.673,1.988-1.974,7.609-.576,10.768a4.107,4.107,0,0,0,4.437,2.748c2.409-.207,2.588-.491,2.588-4.1v-3.12h-1.964c-1.8,0-1.949-.055-1.79-.665s.453-.665,2.961-.665h2.788v8.345l-1.413.642a9.654,9.654,0,0,1-6.9.039Zm15.3-3.438v-3.721l-2.493-4.435c-1.372-2.439-2.493-4.505-2.493-4.589s.423-.155.941-.155c.849,0,1.131.34,2.892,3.487a21.673,21.673,0,0,0,2.19,3.487,21.548,21.548,0,0,0,2.18-3.487c1.728-3.1,2.041-3.487,2.855-3.487.5,0,.918.058.918.136s-1.193,2.147-2.661,4.6l-2.661,4.458v7.426H352.7Zm-249.71,2.916a20.773,20.773,0,0,1-7.313-2.875,22.284,22.284,0,0,1-5.46-5.244,3.15,3.15,0,0,0-.513-.716A18.334,18.334,0,0,1,88.47,291c-3.022-6.866-2.982-15.785.1-21.864a24.608,24.608,0,0,1,4.012-5.567c4.183-3.482,6.732-4.723,11.637-5.667,3.1-.6,11.572.046,12.47.944.325.325-.348,6.723-.755,7.178a6.1,6.1,0,0,1-2.727-.287c-5.421-1.277-9.656-.257-13.079,3.15-4.717,4.694-5.765,11.689-2.725,18.195a10.882,10.882,0,0,0,2.631,3.854,11.747,11.747,0,0,0,3.84,2.764c2.4,1.155,2.478,1.169,6.013,1.038a27.41,27.41,0,0,0,4.743-.5c2.861-.9,2.582-1.009,2.823,1.138.12,1.069.335,2.644.477,3.5.3,1.828.227,1.977-1.305,2.507a28.954,28.954,0,0,1-13.631.942Zm20.282-.734c0-.464,2.011-13.869,2.986-19.907.325-2.012.459-2.891,2.324-14.959.564-3.657,1.1-7.14,1.2-7.739l.173-1.089,5.021.092,5.021.092.634,2c.349,1.1,2.192,6.783,4.095,12.635,3.532,10.859,4.813,15.244,4.813,16.472,0,1.263.551.376.972-1.578.4-1.842,3.407-11.508,4.01-12.9.159-.367,1.209-3.508,2.332-6.982s2.171-6.617,2.327-6.982.419-1.114.586-1.663l.3-1h9.869l.582,3.487c.531,3.185,1.163,7.189,2.992,18.952.355,2.286.789,5.054.965,6.149s.551,3.487.826,5.323.653,4.222.826,5.323.41,2.631.524,3.408l.206,1.413h-4.518c-2.669,0-4.518-.131-4.518-.319s-.459-3.355-1.01-7.066c-1.521-10.156-2.912-19.812-3.166-21.973a4.7,4.7,0,0,0-.367-1.783,33.42,33.42,0,0,0-.972,3.423c-.725,2.871-3.3,11.385-4.606,15.249-.248.734-1.243,3.841-2.211,6.909l-1.76,5.579-8.527-.184-2.271-6.816c-5.207-15.623-7.015-21.64-7.023-23.377,0-.33-.152-.509-.336-.4a2.049,2.049,0,0,0-.332,1.34c0,.624-.367,4.019-.807,7.545s-1.228,9.889-1.744,14.141l-.935,7.731h-4.243c-3.7,0-4.243-.07-4.243-.54Zm60.517-21.524V258l1.744-.209c.96-.116,4.289-.208,7.4-.207,5.958,0,9.836.488,12.6,1.574a12.59,12.59,0,0,1,5.77,5.174c.826,1.578.9,2.039.908,5.545.006,3.555-.059,3.946-.929,5.6a13.454,13.454,0,0,1-8.6,6.6c-1.377.275-1.44.63-.343,2.019.537.683,3.683,5.019,6.989,9.636l6.013,8.4H204.809l-3.1-4.572c-1.7-2.515-4.432-6.554-6.062-8.977a33.132,33.132,0,0,0-3.254-4.405,69.968,69.968,0,0,0-.291,8.977v8.977h-8.313Zm13.692-2.52c3.763-.617,6.049-3.152,6.016-6.675-.04-4.32-2.984-6.467-8.568-6.25l-2.661.1-.092,6.375c-.083,5.865-.043,6.387.5,6.529a13.308,13.308,0,0,0,4.8-.083Zm53.643-2.287c-.8-.184-1-.417-1.032-1.143a2.826,2.826,0,0,1,.041-.911c.041,0,.711.225,1.489.5,2.788.984,5.2.395,5.965-1.456.8-1.927-.039-3.131-3.517-5.047-3.039-1.678-4.114-2.9-4.114-4.674,0-2.914,1.733-4.28,5.427-4.28,2.676,0,3.218.2,3.218,1.163,0,.758,0,.758-1.725.253-2.131-.625-3.755-.29-4.687.965-1.285,1.732-.416,2.973,3.763,5.367,3.029,1.735,3.821,2.747,3.791,4.831a3.946,3.946,0,0,1-2.386,3.894,13.115,13.115,0,0,1-6.241.545Zm41.1-.142c-2.523-.929-3.006-2.632-3.016-10.641l-.008-5.9h2v6.567c0,5.922.065,6.671.649,7.629a3.424,3.424,0,0,0,4.405,1.285c1.871-.887,2.045-1.6,2.188-8.917l.128-6.567h1.6v6.567c0,7.172-.209,8.149-2.026,9.479-1.088.8-4.362,1.071-5.922.5Zm43.832.1a5.451,5.451,0,0,1-3.53-3.282c-.8-1.639-.918-2.266-.923-5.037-.006-2.861.092-3.359.99-5.161,1.306-2.613,2.6-3.487,5.154-3.487a5.126,5.126,0,0,1,4.988,3.006c.764,1.362.832,1.823.832,5.639,0,3.969-.042,4.229-.946,5.766a5.506,5.506,0,0,1-6.564,2.561Zm3.6-1.536c1.638-1.059,2.405-4.222,2.053-8.46-.336-4.038-1.718-5.979-4.261-5.979-2.478,0-3.849,2.784-3.844,7.814,0,2.778.128,3.579.758,4.869,1.188,2.431,3.212,3.1,5.3,1.756Zm-110.3-6.791v-8.313h1.663V275.2h-1.663Zm6.318-.1V258.38l1.12.13c1.1.129,1.178.251,4.572,7.165l3.452,7.034.092-7.185.092-7.185,1.652.316V275.2h-2.2l-3.427-6.982a61.675,61.675,0,0,0-3.72-6.982A42,42,0,0,0,237,268.22c0,6.761-.021,6.982-.665,6.982s-.665-.222-.665-8.412Zm29.261.6v-7.814h-2c-1.521,0-2-.115-2-.482,0-.394.879-.5,4.822-.582,4.405-.092,4.822-.05,4.822.482,0,.489-.318.582-2,.582h-2V275.2h-1.663Zm7.984-.5v-8.313h2V275.2h-2Zm8.313.5v-7.814h-2c-1.552,0-2-.111-2-.5,0-.421.776-.5,4.988-.5,4.139,0,4.988.083,4.988.483,0,.358-.521.508-2.019.582l-2.019.1.036,7.731.036,7.731h-2.019Zm25.271,0v-7.814h-2c-1.679,0-2-.092-2-.582,0-.528.452-.582,4.822-.582s4.822.054,4.822.582c0,.489-.317.582-2,.582h-2V275.2h-1.663Zm7.984-.582v-8.4h3.99c3.579,0,3.99.06,3.99.582s-.367.582-2.993.582h-3V265.9H319.3c2.47,0,2.827.073,2.828.582s-.314.57-2.827.474l-2.827-.107v7.032h3.159c2.937,0,3.159.047,3.159.665s-.222.665-4.156.665h-4.156Zm32.919.1v-8.293l3.991-.1c3.619-.092,3.991-.049,3.99.479,0,.511-.367.582-2.994.582h-2.993V265.9h2.827c2.294,0,2.827.092,2.827.5s-.536.5-2.827.5h-2.827v8.313h-2Z" transform="translate(-28.178 -100.65)" fill="#9ac112"/>
        <path id="Path_7" data-name="Path 7" d="M231.8,303.254l-.748-.106V287.9h-2c-1.773,0-2-.074-2-.665,0-.636.222-.665,5.012-.665,4.594,0,5,.049,4.9.582-.092.466-.521.6-2.18.681l-2.069.1-.092,7.715-.092,7.715Zm7.37-.032c-.076-.076-.139-3.854-.139-8.4v-8.26h4.181c3.8,0,4.171.052,4.069.582-.092.5-.567.6-3.184.677l-3.072.092v5.934l2.906.092c2.458.082,2.923.184,3.017.678.1.519-.212.582-2.906.582h-3.017v6.982h3.159c2.787,0,3.159.069,3.159.582s-.413.582-4.018.582a33.413,33.413,0,0,1-4.156-.139Zm14.312-.315c-2.609-1.591-3.586-3.881-3.586-8.41,0-5.217,2.173-8.1,6.092-8.076,2.814.017,4.589,1.251,5.176,3.6.2.813.144.866-.983.866-.862,0-1.2-.145-1.2-.516a3.437,3.437,0,0,0-1.969-2.753c-3.551-1.238-6.024,3.255-5.032,9.141.642,3.818,2.138,5.541,4.8,5.541a6.72,6.72,0,0,0,2.518-.551c1.382-.689,1.342-.693,1.342.128,0,1.544-5.114,2.276-7.163,1.026Zm10.489-7.943v-8.4h.82c.818,0,.82.011.918,3.741l.092,3.741,6.817.189v-7.67h1.993v16.547l-.826.157a1.678,1.678,0,0,1-1-.017,26.461,26.461,0,0,1-.174-4.109v-3.934h-6.983v8.147h-1.663Zm14.959.028v-8.423h2.334l3.374,6.982a63.744,63.744,0,0,0,3.654,6.982,43.942,43.942,0,0,0,.281-6.982v-6.982h1.5l-.092,8.313c-.071,6.241-.2,8.319-.5,8.338a10.2,10.2,0,0,0-1.016.141c-.5.092-1.266-1.214-4.156-7.091l-3.545-7.207-.166,7.122c-.165,7.094-.169,7.122-.918,7.177l-.748.055v-8.422Zm18.053,7.881c-3.127-1.906-4.387-8.454-2.463-12.8,1.727-3.9,6.5-4.977,9.325-2.092,1.523,1.56,2.121,3.957,1.962,7.863-.15,3.684-.96,5.616-2.9,6.924a6.376,6.376,0,0,1-5.923.107Zm5.025-1.358c1.478-1.3,2-3.462,1.8-7.5-.174-3.637-.906-5.353-2.643-6.2a2.533,2.533,0,0,0-2.493-.166,3.015,3.015,0,0,0-2.039,1.935c-.97,1.953-1.317,6.035-.746,8.778.806,3.873,3.641,5.333,6.123,3.153Zm7.513-6.55v-8.4h2.027l-.1,15.461,2.862.092c2.442.082,2.862.184,2.862.665,0,.5-.437.569-3.824.569h-3.824Zm12.708,8.009c-2.182-1.076-3.4-3.91-3.4-7.926,0-4.4,1.437-7.292,4.137-8.323a5.126,5.126,0,0,1,5.9,1.2c1.406,1.478,1.878,2.82,2.151,6.122.219,2.645-.466,5.957-1.547,7.475-1.346,1.89-4.9,2.6-7.246,1.445Zm5.1-1.607c2.047-2.17,2.442-8.438.74-11.752-1.527-2.973-4.9-2.914-6.412.113-.551,1.109-.665,2-.665,5.323,0,4.447.5,6.1,2.122,6.981a3.2,3.2,0,0,0,4.216-.663Zm10.116,1.544c-2.547-1.355-3.91-4.956-3.548-9.372.223-2.721,1.009-4.736,2.275-5.8,2.64-2.222,7.317-1.738,8.94.923.944,1.548.854,2.228-.3,2.228-.8,0-1.031-.212-1.468-1.337-1.009-2.57-4.124-2.9-6.025-.642-1.673,1.988-1.974,7.609-.576,10.768a4.107,4.107,0,0,0,4.437,2.747c2.409-.207,2.588-.491,2.588-4.1v-3.12h-1.964c-1.8,0-1.949-.055-1.79-.665s.453-.665,2.962-.665h2.788v8.345l-1.413.642a9.654,9.654,0,0,1-6.9.039Zm15.3-3.438v-3.721l-2.493-4.435c-1.372-2.439-2.493-4.505-2.493-4.589s.423-.155.941-.155c.849,0,1.131.34,2.892,3.487a21.674,21.674,0,0,0,2.19,3.487,21.549,21.549,0,0,0,2.18-3.487c1.728-3.1,2.041-3.487,2.855-3.487.5,0,.918.058.918.136s-1.193,2.147-2.661,4.6l-2.661,4.458v7.426h-1.663Zm-246.6,3.131c.087-.14-.448-.2-1.188-.128-1.027.1-1.285.028-1.085-.295.175-.285.128-.34-.144-.173-.494.3-2.771-.08-2.553-.432.085-.138-.335-.264-.934-.281-2.062-.059-6.48-2.874-8.61-5.488-3.384-4.152-5-9.136-5.033-15.56-.024-4.189.791-8.977,1.528-8.977.174,0,.232-.136.129-.3-.264-.427.157-1.394.511-1.175.162.1.213-.029.114-.287-.218-.57,2.613-4.753,3.139-4.636.206.046.337-.1.291-.332a.262.262,0,0,1,.332-.332.262.262,0,0,0,.332-.332c-.046-.229.115-.374.357-.324s.356-.045.253-.212c-.275-.446.637-1.087,1.226-.86a.617.617,0,0,0,.724-.157c.137-.221.005-.27-.353-.132-1.228.471-.048-.551,1.79-1.553,3.89-2.117,5.661-2.5,11.644-2.5,4.276,0,5.476.1,5.7.464a.7.7,0,0,0,.815.262c.3-.115.494-.045.449.16a.486.486,0,0,0,.337.515c.267.1.343-.037.212-.378-.142-.367-.059-.474.275-.345.384.147.431.542.232,1.915-.138.952-.348,2.57-.465,3.606l-.214,1.875-1.892-.5c-2.328-.619-10.2-.623-9.82-.005.084.137.018.25-.148.25a7.57,7.57,0,0,0-1.752.974c-.8.536-1.591.887-1.764.78s-.22-.043-.106.141c.207.335-1.289,1.976-1.711,1.875a1.421,1.421,0,0,0-.721.24c-.275.161-.341.3-.15.3a1.439,1.439,0,0,0,.791-.406c.243-.228.175.006-.151.519-.408.642-.671.809-.842.53-.153-.248-.247-.092-.243.4a12.493,12.493,0,0,1-.826,2.966,13.233,13.233,0,0,0-.744,8.488,29.313,29.313,0,0,0,1.034,3.661c.551,1.316.583,1.587.16,1.325a.4.4,0,0,0-.535.173c-.124.2.24.82.809,1.377s1.032.88,1.029.721c-.009-.519-.627-1.285-1.036-1.285a.6.6,0,0,1-.53-.389c-.312-.937.976-.109,1.927,1.238a12.977,12.977,0,0,0,4.079,3.837c.52.283.855.6.745.714-.3.3,1.176,1.744,1.776,1.735.4-.007.367-.1-.141-.394-.734-.424-1.643-1.258-1.37-1.258.092,0,1.035.225,2.089.5a17.642,17.642,0,0,0,3.671.5c.967,0,1.759.15,1.759.332,0,.415,1.224.44,1.478.031.1-.166-.113-.223-.479-.128s-.665.01-.665-.2.337-.378.748-.386a14.858,14.858,0,0,0,4.122-1.066c.519-.335.7.264.944,3.125.115,1.344.275,2.774.359,3.178.134.653-.092.806-2.1,1.391-1.236.362-3.135.818-4.222,1.01-2.288.411-5.62.472-5.39.1Zm1.332-.575a1,1,0,0,0-.9-.494c-.673,0-.665.031.118.466.459.253.864.476.9.494S107.584,302.3,107.479,302.029Zm2.349-.206c-.1-.167-.459-.146-.826.05-.869.465-.811.594.184.4C109.645,302.189,109.931,301.986,109.829,301.823Zm-4.465.039a.332.332,0,1,0-.332.332A.332.332,0,0,0,105.364,301.862Zm-2.493-.332c-.113-.184.028-.332.313-.332s.519-.159.519-.352.173-.245.384-.115.294.092.166-.116c-.237-.384-1.446-.184-1.738.29-.184.3.092.957.4.957.092,0,.073-.15-.039-.332Zm10-.332c.964,0,.429-.5-.61-.573-.8-.054-.949.009-.581.244.414.264.385.323-.166.347l-.665.028.665.264c.367.146.715.135.775-.023A.642.642,0,0,1,112.874,301.2Zm1.377,0a2.056,2.056,0,0,1,1.346-.665c.428,0,.688-.144.579-.319-.124-.2-.5-.2-1-.013-.9.342-2.351,1.663-1.827,1.663a1.88,1.88,0,0,0,.9-.665Zm-4.643-.665c-.491-.786-.9-.831-1.765-.2-.6.44-.587.459.23.3.478-.092.97,0,1.094.2a.762.762,0,0,0,.541.367c.173,0,.128-.3-.1-.665Zm-8.454-.084c-.208-.34-2.111-.318-2.111.025,0,.151.508.263,1.131.25s1.062-.138.978-.275Zm5.449.215a.669.669,0,0,0-.637-.027c-.265.106-.184.184.2.2.351.015.547-.061.437-.174Zm-7.709-1.023c.524-.524.52-.587-.056-1.01-.387-.283-.657-.322-.734-.105-.063.189-.393.344-.734.344a1.065,1.065,0,0,0-.82.329c-.112.184-.008.268.229.194s.881-.234,1.429-.355l1-.221-.8.692c-.439.381-.636.692-.438.692a1.859,1.859,0,0,0,.918-.559Zm8.383-.011a7.347,7.347,0,0,0-1.829,0c-.5.076-.092.139.918.139s1.413-.062.91-.139Zm4.738-.092a4.7,4.7,0,0,0-2.145.047c-.177.159.627.263,1.829.236l2.145-.047Zm5.231.129a.669.669,0,0,0-.637-.027c-.265.106-.184.184.2.2.351.015.551-.064.437-.174Zm-13.045-1.46c.113-.184.047-.332-.147-.332a.344.344,0,0,0-.352.332c0,.184.066.332.147.332S104.087,298.39,104.2,298.206Zm11.7-.395c-.106-.265-.184-.184-.2.2-.015.351.064.551.174.437a.669.669,0,0,0,.027-.637Zm.959-1.117a3.185,3.185,0,0,1-.316-1.8c.142-.661.1-.734-.173-.345-.195.275-.357.376-.36.226s-.251-.028-.551.275a1.359,1.359,0,0,1-1.37.34c-.758-.19-.781-.163-.287.329a.833.833,0,0,0,.954.275c.8-.5,1.285-.41,1.087.206a.59.59,0,0,0,.318.794.88.88,0,0,1,.508.771c0,.395.107.468.342.233s.184-.642-.155-1.3Zm-22.594.5a1.318,1.318,0,0,0-.395-.918,1.716,1.716,0,0,1-.459-2.09c.236-.441.236-.642,0-.642-.189,0-.344.237-.344.527,0,.725-.76.42-1.159-.465-.408-.9-.707-.923-.932-.061-.092.367-.061.6.077.51.416-.257,1.744,1.184,1.549,1.685a.311.311,0,0,0,.318.464c.275,0,.642.374.812.831.383,1.009.587,1.065.537.154Zm14.094.487c0-.42-.987-1.14-1.56-1.132-.511.006-.475.109.226.658.834.652,1.33.826,1.33.475Zm6.068-.367a1.285,1.285,0,0,0-.831,0c-.229.092-.041.168.416.168s.645-.072.415-.164Zm-9.394-.445a.344.344,0,0,0-.352-.332c-.194,0-.26.15-.147.332s.275.332.352.332.146-.145.146-.328Zm-1-1.172c-.231-.275-.508-.42-.613-.315s.028.331.3.5c.7.45.8.394.316-.183Zm4.08-.046a1.285,1.285,0,0,0-.831,0c-.229.092-.041.168.416.168s.643-.072.415-.163Zm-7.953-2.851c-.083-.137.017-.25.221-.25s.27-.165.144-.367c-.159-.256-.314-.231-.513.084-.26.409-.435.167-.335-.459.022-.137-.11-.25-.293-.25s-.315-.112-.293-.25c.092-.557-.058-.775-.383-.575-.216.133-.069.657.4,1.41.606.98.642,1.159.184.986a.666.666,0,0,0-.781.157c-.133.216-.078.275.133.146a.411.411,0,0,1,.568.112c.133.215.367.184.653-.078C100.106,293.236,100.239,292.939,100.156,292.8Zm-9.755-.084c-.235-.284-.323-.619-.2-.746s.355-.031.507.213c.217.352.406.362.9.049s.5-.358.064-.225a.977.977,0,0,1-.952-.3c-.217-.262-.51-.4-.652-.317-.275.171-.786-1.111-.662-1.662a2.742,2.742,0,0,0-.128-2.1c-.23-.307-.184-.544.147-.779.385-.275.367-.3-.1-.151-.434.139-.585,0-.592-.551-.009-.691-.033-.7-.367-.117-.26.448-.26.685,0,.846a1.622,1.622,0,0,1,.459,1.041,1.815,1.815,0,0,0,.424,1.061c.184.138.079.247-.25.25-.375,0-.591-.26-.608-.743-.015-.411-.106-.551-.2-.308-.19.475,2.2,5.515,2.478,5.231.092-.092-.022-.4-.257-.686Zm4.222-1.226c-.106-.265-.184-.184-.2.2-.015.351.064.551.174.437a.669.669,0,0,0,.027-.637Zm2.523-.91c.125-.477.035-.589-.352-.441s-.459.052-.309-.347c.116-.3.08-.626-.08-.724-.331-.2-.237,1.193.12,1.768.326.527.427.486.62-.256Zm-1.753-2.851c0-.275-.15-.5-.332-.5s-.332.225-.332.5.15.5.332.5.329-.223.329-.5Zm1.266-1.009c-.1-.1-.288.083-.413.41-.184.474-.142.512.184.184.227-.218.331-.487.226-.589Zm-1.813-1.567c-.328-.53-.7-.219-.7.585,0,.764.038.786.428.253.235-.322.357-.7.275-.838Zm1.123,1.209a.669.669,0,0,0-.637-.027c-.265.106-.184.184.2.2.351.015.551-.064.437-.174Zm-7.984-4.038c-.076-.506-.141-.171-.143.743s.06,1.328.139.918a5.94,5.94,0,0,0,0-1.663Zm7.409,1.907c0-.184-.066-.332-.147-.332s-.24.15-.352.332-.047.332.147.332a.344.344,0,0,0,.349-.324Zm-.176-1.285c-.106-.106-.34.028-.52.3-.228.34-.275-.018-.157-1.174.17-1.645.168-1.652-.162-.347-.419,1.652-.195,2.433.529,1.835.275-.229.417-.5.31-.609Zm-6.583-3.095c-.106-.265-.184-.184-.2.2-.015.351.064.551.174.436A.669.669,0,0,0,88.634,279.852Zm6.281-1.188c-.111-.111-.385-.017-.608.206-.321.321-.3.473.092.717.353.221.529.161.608-.206a.918.918,0,0,0-.092-.714Zm-6.281-.474c-.106-.265-.184-.184-.2.2-.015.351.064.551.174.437a.669.669,0,0,0,.027-.637Zm6.318-1.33c-.106-.265-.184-.184-.2.2-.015.351.064.551.174.436a.669.669,0,0,0,.027-.637Zm.074-1.468c-.486-.586-.722-.414-.441.32.115.3.351.459.523.351S95.262,275.675,95.026,275.391Zm-5.954-.794c0-.184-.308-.332-.685-.332s-.592.15-.479.332a.879.879,0,0,0,.685.332c.263,0,.479-.15.479-.332Zm6.318-.5c0-.275-.15-.5-.332-.5s-.332.225-.332.5.15.5.332.5.332-.224.332-.5Zm-6.624-1.247c.015-.595.1-.894.194-.665a.65.65,0,0,0,.513.416c.231,0,.236-.137.014-.416A1.754,1.754,0,0,1,89.28,271c.074-.459-.01-.685-.208-.563a1.109,1.109,0,0,0-.333.852c0,.355-.145.642-.322.642s-.235.227-.129.5a1.127,1.127,0,0,1-.217,1c-.335.4-.311.495.129.495.383,0,.548-.318.566-1.077Zm.971.934c0-.081-.15-.24-.332-.352s-.332-.047-.332.147a.344.344,0,0,0,.332.352c.184,0,.333-.066.333-.147Zm7.123-1.919a2.17,2.17,0,0,1,.193-1.33l.367-.761-.684.785a1.8,1.8,0,0,0-.472,2.208c.17.441.269.463.491.11a1.394,1.394,0,0,0,.1-1.011Zm-2.913-3.338c-.092-.229-.168-.041-.168.416s.075.642.168.416a1.285,1.285,0,0,0,0-.831Zm-3.545.618c0-.072-.225-.217-.5-.322s-.5-.047-.5.13.225.322.5.322.5-.059.5-.13Zm2-.367c0-.275-.15-.5-.332-.5s-.332.225-.332.5.15.5.332.5.332-.225.332-.5Zm-.34-1.815c.84-1.646.838-1.788-.014-1.333-.377.2-.62.543-.541.76s-.162.734-.537,1.141c-.586.642-.6.748-.13.748.306,0,.848-.585,1.221-1.317Zm7.655,1.186c0-.072-.232-.22-.516-.329s-.429-.058-.313.13c.2.316.826.467.826.2Zm3.113-2.271a.637.637,0,0,0-.492-.258c-.184,0-.23.165-.1.367.153.248-.031.3-.563.17-.434-.109-.6-.111-.361,0,.337.153.343.3.03.677-.282.34-.1.308.625-.106.563-.323.953-.7.865-.846Zm-3.445.573c0-.275-.145-.5-.322-.5s-.236.225-.13.5.251.5.322.5.13-.221.13-.5Zm-5.426-.894c-.106-.265-.184-.184-.2.2-.015.351.064.551.174.437a.669.669,0,0,0,.027-.637Zm21.315-.981c-.083-.249-.234-.1-.352.352-.145.551-.1.683.145.436a.851.851,0,0,0,.206-.787ZM94.81,263.383c-.092-.251-.452-.042-.948.551-1.079,1.285-1.01,1.575.149.63.521-.426.882-.955.8-1.177Zm3.322,1.68a1.285,1.285,0,0,0-.831,0c-.229.092-.041.168.416.168s.644-.072.42-.164Zm15.779-1.858c-.079-.411-.144-.075-.144.748s.065,1.16.144.748a4.738,4.738,0,0,0,0-1.492Zm-5.671.993c-.708-.241-1.064-.206-1.41.14-.4.4-.257.442.947.322,1.388-.139,1.395-.146.459-.459Zm-11.944.219a.669.669,0,0,0-.637-.027c-.265.106-.184.184.2.2.351.015.551-.064.437-.174Zm14.3,0a.669.669,0,0,0-.637-.027c-.265.106-.184.184.2.2.351.015.551-.064.437-.174Zm-.908-.8a.332.332,0,1,0-.332.332.332.332,0,0,0,.332-.332Zm-11.638-.332c0-.184-.212-.332-.471-.332a.636.636,0,0,1-.588-.352c-.064-.194-.376-.252-.693-.13-.8.307-.725.791.092.578.372-.1.665-.01.665.2s.225.367.5.367.5-.15.5-.332Zm9.144,0a.729.729,0,0,0-.538-.332c-.184,0-.24.15-.127.332a.729.729,0,0,0,.538.332c.183,0,.24-.146.127-.329Zm-8.323-.971a.383.383,0,0,0-.147-.518c-.184-.115-.338.025-.338.309C98.382,262.69,98.582,262.782,98.871,262.318Zm12.061-.224a.669.669,0,0,0-.637-.027c-.265.106-.184.184.2.2.351.015.551-.064.437-.174ZM98.17,261.13c.106-.275.11-.5.012-.5a1.9,1.9,0,0,0-.678.5c-.432.432-.434.5-.012.5a.8.8,0,0,0,.678-.5ZM116,260.465c0-.275-.145-.5-.322-.5s-.236.225-.13.5.251.5.322.5.13-.223.13-.5ZM99.88,260.3c-.866-.374-1.164-.393-1.164-.074,0,.143.411.283.918.311.789.044.826.011.25-.237Zm3.824,0a.332.332,0,1,0-.332.332.332.332,0,0,0,.332-.332Zm4.565.131a.669.669,0,0,0-.637-.027c-.265.106-.184.184.2.2.351.015.551-.064.437-.174Zm-5.844-.878a.642.642,0,0,0-1.048.4c0,.155.309.2.687.1.448-.117.574-.293.362-.5Zm1.4-.512c.092-.144-.116-.262-.459-.262s-.543.117-.459.262a.527.527,0,0,0,.909,0Zm3.456.033a3.623,3.623,0,0,0-1.33-.006c-.414.08-.153.148.578.151S107.6,259.162,107.283,259.078Zm16.2,42.206a19.74,19.74,0,0,0,.666-3.976c.085-.953.607-4.416,1.16-7.7s1.01-6.431,1.01-7,.145-1.03.322-1.03.242-.208.145-.459a49.652,49.652,0,0,1,.82-6.567c.551-3.357,1.088-6.777,1.2-7.6s.441-3.1.734-5.07l.532-3.575h9.8l3.4,10.335a104.679,104.679,0,0,1,3.2,10.824c-.1.27-.059.409.1.312s.616.906,1.021,2.227a28.051,28.051,0,0,1,1.187,4.232,16.013,16.013,0,0,0,.918,3.815c.284.551.444.214.961-2,.906-3.874,1.61-5.846,2-5.6.215.132.259-.048.118-.488-.147-.459.973-4.276,3.3-11.263,1.94-5.811,3.687-10.977,3.884-11.48l.357-.918h9.509l.191.918c.686,3.292,1.91,11.846,1.961,13.722.034,1.237.153,2.1.264,1.927.3-.474,1.67,8.535,1.406,9.228-.139.367-.092.506.117.374.4-.247.871,3.954.6,5.351-.151.781-.128.813.165.238s.323-.5.229.416c-.061.595-.017,1.08.1,1.08.184,0,1.057,4.746,1.662,9.061l.221,1.579h-8.859l-.055-1.5c-.03-.826-.068-2.058-.084-2.743a3.614,3.614,0,0,0-.212-1.413c-.367-.332-2.019-11.655-1.8-12.343.14-.441.1-.63-.111-.5s-.421-.6-.556-1.87c-.234-2.208-1.088-8.784-1.337-10.3-.1-.618.032-1.009.423-1.239.474-.275.415-.324-.343-.271-.74.052-.918.225-.918.906a40.178,40.178,0,0,1-1.116,5c-1.516,5.648-7.647,24.9-7.885,24.754-.1-.063-.184.213-.166.616.024.711-.092.734-4.13.819l-4.156.087-1.794-5.573c-.987-3.065-2.439-7.481-3.228-9.812a26.291,26.291,0,0,1-1.241-4.239c.106,0,.042-.184-.141-.416a44.358,44.358,0,0,1-2.074-6.386c0-.121.137-.137.3-.033s.38,0,.473-.229c.108-.269.178-.224.195.124.03.629,1.024,1.594,1.024,1a.342.342,0,0,0-.3-.374c-.163,0-.406-.411-.54-.918s-.312-.728-.4-.5c-.36.977-1.01.34-1.193-1.164a11.954,11.954,0,0,0-.6-2.577c-.4-.952-.428-.875-.678,1.663-.144,1.463-.565,4.755-.936,7.315s-.749,5.4-.842,6.318-.27,2.336-.393,3.159a10.13,10.13,0,0,0-.163,1.759c.034.145-.239,2.538-.606,5.323s-.668,5.169-.67,5.306a17.972,17.972,0,0,1-4.195.25h-4.192Zm.934.026c-.167-.434-.081-.506.39-.325.51.2.539.153.184-.275-.6-.721-.926-.627-.834.241s.108.918.319.918c.085,0,.06-.251-.058-.556Zm2.472.355a.669.669,0,0,0-.637-.027c-.265.106-.184.184.2.2.351.015.551-.064.437-.174Zm24.7.054c0-.351-.642-.5-.826-.191-.115.184.025.338.309.338s.514-.071.514-.151Zm23.518-.054a.669.669,0,0,0-.637-.027c-.265.106-.184.184.2.2.351.015.551-.064.437-.174ZM153.292,300.2c.191-.551.483-.918.648-.811.351.217.375.063.1-.642-.154-.4-.288-.425-.623-.112a.826.826,0,0,0-.28.783.521.521,0,0,1-.208.6.9.9,0,0,0-.355.7C152.581,301.51,152.925,301.26,153.292,300.2Zm16.092.083c-.126-.5-.309-1.4-.408-2-.275-1.666-.75-1.617-.673.07.038.835.252,1.572.484,1.663.6.235.509.775-.166.952-.417.109-.359.163.2.191.7.034.761-.065.558-.876Zm5.76-.531c-.3-.254-1.291-.319-2.948-.194l-2.493.189,2.4.06c1.56.039,2.547.222,2.827.526.245.267.481.324.551.134a.79.79,0,0,0-.332-.716Zm-29.216.448c0-.191,1.236-.362,2.909-.4l2.909-.068-2.827-.108c-2.158-.083-2.925-.239-3.242-.661-.362-.481-.416-.414-.416.508,0,.584.15,1.061.332,1.061a.333.333,0,0,0,.332-.332Zm-19.524-.206c.255-.255-.579-1.124-1.08-1.124-.265,0-.268.184-.012.665.364.677.723.829,1.09.459Zm3.978-.367a10.576,10.576,0,0,0-2.161,0c-.595.073-.108.134,1.081.134s1.678-.061,1.083-.134Zm21.979-.934c-.263-.687-.449-.607-.449.2,0,.376.143.6.318.488a.586.586,0,0,0,.134-.684Zm-25.13-.217a.941.941,0,0,0-.527-.527c-.243-.081-.318.071-.193.395.234.6.921.731.722.132Zm17.594-.332c-.106-.265-.184-.184-.2.2-.015.351.064.551.174.436A.669.669,0,0,0,144.825,298.142Zm6.318,0c-.106-.265-.184-.184-.2.2-.015.351.064.551.174.436a.669.669,0,0,0,.027-.637Zm18.487-.284c-.1-.373-.251-.6-.342-.513-.184.184.138,1.193.374,1.193.083,0,.068-.307-.034-.68Zm5.256.2c.167.1.3.042.3-.137a4.043,4.043,0,0,1,.2-.934c.164-.507.138-.525-.162-.11-.312.434-.36.426-.367-.063-.011-1.238-.507-.772-.546.513-.023.758.027,1.193.112.961s.29-.333.459-.229Zm-49.864-.741c-.392-.674-.486-.459-.166.378.114.3.275.47.367.385s0-.429-.2-.763Zm28.223.079a1.469,1.469,0,0,0-.582-.895c-.527-.413-.539-.4-.129.121a1.293,1.293,0,0,1,.253,1.1c-.115.3-.06.434.129.318a.826.826,0,0,0,.329-.642Zm1.634-.686c.01-.184-.127-.108-.3.166a2.054,2.054,0,0,0-.3,1c.019.527.574-.534.608-1.164Zm-9.574.275c-.29-.5-.354-.513-.367-.081-.011.56.339,1.065.575.826.078-.078-.017-.415-.212-.748Zm.391-.907c-.329-.44-.659-.74-.734-.667-.137.132.956,1.468,1.2,1.468.072,0-.139-.36-.467-.8Zm-19.676-.423c-.392-.675-.486-.459-.166.378.114.3.275.47.367.385s0-.429-.2-.763Zm42.97.048c-.263-.687-.449-.607-.449.2,0,.376.143.6.318.488a.586.586,0,0,0,.131-.686Zm-15.412.367c0-.081-.15-.239-.332-.352s-.332-.047-.332.147a.344.344,0,0,0,.332.352c.184-.005.334-.072.334-.152ZM126.7,291.227c.153,0,.262-.337.24-.748-.029-.569-.075-.608-.192-.162-.084.322-.291.5-.459.4s-.307.184-.307.642a5.69,5.69,0,0,1-.323,1.679,2.329,2.329,0,0,0-.084,1.434c.163.4.337-.024.543-1.327.167-1.052.429-1.912.582-1.912Zm5.535,2.817c-.1-.1-.288.083-.413.41-.184.474-.142.512.184.184.231-.229.333-.5.23-.6Zm-5.361-.22c-.106-.265-.184-.184-.2.2-.015.351.064.551.174.437a.669.669,0,0,0,.027-.637Zm16.438-.162c-.392-.675-.486-.459-.166.378.114.3.275.47.367.385s-.005-.433-.2-.767Zm1.095-.1c-.216-.216-.328-.1-.328.328s.112.543.328.328a.413.413,0,0,0,0-.66Zm1.42.265c-.106-.265-.184-.184-.2.2-.015.351.064.551.174.437a.669.669,0,0,0,.027-.637Zm9.813-.474c-.289-.517-.329-.477-.284.284.028.488.184.757.336.6a.832.832,0,0,0-.051-.89Zm-8.454-.191a.941.941,0,0,0-.527-.527c-.243-.081-.318.071-.193.395.233.6.92.727.72.133Zm1.292-.434c-.211-.459-.608-.818-.883-.8-.34.017-.367.077-.084.192a.9.9,0,0,1,.416.8c0,.351.21.637.467.637.381,0,.4-.16.084-.832Zm7.631-.469c-.019-.53-.148-.9-.285-.811s-.25-.1-.25-.42-.092-.484-.2-.374a5.475,5.475,0,0,0,.676,2.57,2.576,2.576,0,0,0,.058-.965Zm-23.5-.8c.013-.148-.127-.176-.309-.063s-.332-.052-.332-.367-.076-.5-.169-.406a2.632,2.632,0,0,0,.055,1.285c.189.944.263,1.018.478.469a4.874,4.874,0,0,0,.275-.918Zm42.252.934c0-.275-.059-.5-.13-.5s-.217.225-.322.5-.047.5.13.5.323-.228.323-.5Zm-31.256-.166a.324.324,0,0,0-.313-.332.713.713,0,0,0-.519.332c-.113.184.028.332.313.332s.519-.153.519-.336Zm6.075-.687c-.117-.448-.293-.574-.5-.362a.642.642,0,0,0,.4,1.048c.155,0,.2-.309.1-.687Zm-6.315-.224a.424.424,0,0,1-.218-.573.565.565,0,0,0-.184-.664c-.2-.121-.355-.052-.355.152s-.164.27-.367.146c-.263-.163-.267-.041-.012.435.195.367.27.746.166.849s.161.1.585-.015.6-.261.385-.331Zm2.9-.153c0-.537-.1-.633-.367-.362a.642.642,0,0,0-.147.734q.516.835.517-.367Zm-1.33-.08a.879.879,0,0,0-.332-.685c-.184-.113-.332.1-.332.479s.15.685.332.685.333-.218.333-.483Zm4.121-.379c.288-.751.261-.806-.3-.592a.787.787,0,0,0-.5.654c0,.627.547.584.8-.066Zm8.515-2.338c0-.071-.311.184-.691.563s-.9.612-1.147.516c-.3-.114-.391-.006-.275.3.1.264.307.4.459.31a.4.4,0,0,1,.509.21c.143.232.411-.039.688-.7a9.909,9.909,0,0,0,.453-1.206Zm-31.548.977c-.392-.674-.486-.459-.166.378.114.3.275.47.367.385s0-.429-.2-.763Zm17.839.162a.942.942,0,0,0-.527-.527c-.243-.081-.318.071-.193.395.233.6.921.727.72.129Zm23.061-.359c-.329-.326-.367-.288-.184.184.125.328.311.512.413.41s0-.373-.229-.6Zm-34.175-.424c-.108-.282-.268-.441-.355-.354s-.06.318.061.513C132.776,289.407,132.968,289.3,132.743,288.718Zm15.846.184c.608-.393.083-.393-.831,0-.439.188-.5.292-.166.3a2.05,2.05,0,0,0,1-.311Zm7.875-.728c-.106-.265-.184-.184-.2.2-.015.351.064.551.174.437a.669.669,0,0,0,.027-.637Zm11.747.275a2.5,2.5,0,0,0-.627-1.171c-.541-.624-.654-.65-.831-.19-.307.8-.2,1.415.111.642.252-.624.3-.608.695.25.472,1.009.652,1.141.652.466Zm-42-.944c-.106-.265-.184-.184-.2.2-.015.351.064.551.174.437a.669.669,0,0,0,.027-.637Zm.665,0c-.106-.265-.184-.184-.2.2-.015.351.064.551.174.437a.669.669,0,0,0,.027-.637Zm21.587-.257c-.03-.838-.1-.918-.5-.525a1.022,1.022,0,0,0-.26.984C148.04,288.577,148.5,288.3,148.462,287.248Zm-15.6-.075c-.106-.265-.184-.184-.2.2-.015.351.064.551.174.437a.669.669,0,0,0,.027-.637Zm19.391.209c0-.285-.152-.424-.338-.309a.383.383,0,0,0-.147.519c.282.457.481.372.481-.214Zm3.089-.147c.092-.367.039-.665-.128-.665s-.3.3-.3.665.058.665.128.665.2-.3.3-.669Zm13.647-1.076c.184-.727.173-.734-.293-.108-.534.715-.642,1.323-.19,1.042a1.869,1.869,0,0,0,.481-.936Zm-27.911.017a.437.437,0,0,1,.176-.588c.294-.184.283-.331-.045-.6-.344-.285-.44-.126-.459.76-.01.617.106,1.044.259.95a.375.375,0,0,0,.063-.519Zm16.164.246a.879.879,0,0,0-.332-.685c-.184-.113-.332.1-.332.479s.15.685.332.685.33-.218.33-.482Zm-24.273-.043a1.857,1.857,0,0,0-.5-.688c-.541-.541-.609-.459-.3.352.185.491.792.747.792.333Zm25.307-1.405c-.343-.115-.231-.7.376-1.968.194-.406.478-.659.631-.564s.184-.073.07-.372c-.15-.389-.275-.431-.453-.148-.188.3-.3.3-.494-.007s-.317-.3-.535.048a1.853,1.853,0,0,0-.285.784c0,.184.139.112.309-.157s.41-.388.533-.265-.066.621-.419,1.107a1.758,1.758,0,0,0-.293,2c.328,1.047.367,1.072.622.385.163-.44.139-.778-.061-.844Zm-10.621.154c.072-.622-.021-1.109-.213-1.109-.275,0-.411,1.277-.217,2.05.118.474.316.041.43-.943Zm6.594.4c0-.184-.15-.24-.332-.127a.729.729,0,0,0-.332.538c0,.184.15.24.332.127a.729.729,0,0,0,.329-.54Zm-1.209-1.222c.068-.586-.006-1.065-.165-1.065s-.291.262-.294.582a7.6,7.6,0,0,1-.211,1.413c-.151.608-.106.734.17.484a2.83,2.83,0,0,0,.5-1.413Zm14.034.734c-.193-.766-.134-.838.546-.668.418.1.574.1.345,0a.79.79,0,0,1-.416-.662.5.5,0,0,0-.524-.471c-.387,0-.5.281-.434,1.08.1,1.171.23,1.579.515,1.579.1,0,.086-.386-.033-.858Zm6.129.577a2.1,2.1,0,0,0-.665-.883c-.377-.341-.665-.436-.665-.217a.367.367,0,0,0,.332.384c.184,0,.332.225.332.5s.15.5.332.5a.311.311,0,0,0,.332-.281Zm-7.089-.779c-.106-.265-.184-.184-.2.2-.015.351.064.551.174.437a.669.669,0,0,0,.027-.637Zm-33.222-1.727c-.039-.47-.25-.923-.468-1.009-.294-.113-.319.118-.1.885.329,1.145.115,1.669-.367.9-.262-.416-.31-.406-.315.065-.006.692.741.988,1.075.426a2.661,2.661,0,0,0,.177-1.273Zm13.413.567c-.29-.5-.354-.513-.367-.081-.011.56.339,1.064.574.826.078-.078-.017-.415-.212-.748Zm10.6.391c.228-.275.31-.5.184-.5a1.744,1.744,0,0,0-.73.5c-.275.275-.357.5-.184.5a1.33,1.33,0,0,0,.729-.5Zm-16.917-.723c-.392-.674-.486-.459-.166.378.114.3.275.47.367.385s-.007-.429-.2-.764Zm.934.184a1.492,1.492,0,0,1-.012-1.511c.459-1,.476-1.878.034-1.605a1.066,1.066,0,0,0-.332.826.8.8,0,0,1-.376.743c-.26.086-.206.459.174,1.193a3.169,3.169,0,0,0,.72,1.066c.092,0,0-.318-.209-.707Zm13.324.374a.332.332,0,1,0-.332.332.332.332,0,0,0,.332-.332Zm14.667-1.33c-.134-.945-.31-1.341-.48-1.074-.231.367.353,2.963.6,2.676a6.9,6.9,0,0,0-.121-1.6Zm1.533-.577c-.076-.506-.141-.171-.143.743s.06,1.328.139.918a5.924,5.924,0,0,0,0-1.663Zm2.612.387c-.329-1.311-.717-.918-.575.576.106,1.1.2,1.266.459.808a2.2,2.2,0,0,0,.114-1.386Zm-1.3.44c-.092-.228-.168-.041-.168.416s.075.642.168.416a1.285,1.285,0,0,0,0-.831Zm-24.9-.077c-.038-.454-.191-.7-.34-.551a.866.866,0,0,0-.059.826c.307.8.477.682.4-.275Zm-19.98-.234c-.106-.265-.184-.184-.2.2-.015.351.064.551.174.436a.669.669,0,0,0,.027-.637Zm39.54-.848c-.11-.11-.2-.017-.2.207s-.15.315-.332.2-.332.132-.332.551v.759l.532-.761c.293-.418.442-.851.332-.961Zm-11.506.741c0-.275-.15-.5-.332-.5s-.332.225-.332.5.15.5.332.5.331-.224.331-.5Zm.775-2.913c-.235-.151-.353-.855-.294-1.744.056-.835-.046-1.493-.231-1.493s-.167-.2.059-.469c.243-.293.268-.544.066-.669-.448-.275-.642.81-.313,1.744a3.152,3.152,0,0,1,.079,1.543c-.106.425-.032.872.166.994.459.284.472,1.846.014,1.846-.2,0-.164.2.084.464.358.387.459.264.6-.748.1-.742.016-1.311-.226-1.468Zm-1.545,1.354c-.106-.265-.184-.184-.2.2-.015.351.064.551.174.436a.669.669,0,0,0,.027-.637Zm3.318-.353c-.092-.229-.168-.041-.168.416s.075.642.168.416a1.285,1.285,0,0,0,0-.835Zm-17.841.088c0-.367-.21-.665-.468-.665-.3,0-.407.233-.294.665.092.367.307.665.468.665S139.618,280.948,139.618,280.586Zm27.266.332c0-.184-.3-.332-.665-.332s-.665.15-.665.332.3.332.665.332.661-.153.661-.336Zm5.349-.149c.591.367.294-.225-.527-1.045-.459-.459-.831-.686-.831-.507a1.468,1.468,0,0,0,.442.766,1.144,1.144,0,0,1,.357.864c-.047.231-.008.267.084.078a.332.332,0,0,1,.474-.155Zm-12-.868a.3.3,0,0,0-.275-.313c-.152,0-.275.217-.275.485s.125.407.275.313a.642.642,0,0,0,.271-.489Zm-5.323.019a.332.332,0,1,0-.332.332.332.332,0,0,0,.332-.332Zm14.63-.184c0-.285-.152-.424-.338-.309a.383.383,0,0,0-.147.519C169.342,280.405,169.541,280.322,169.541,279.737Zm-11.063-.015a.669.669,0,0,0-.637-.027c-.265.106-.184.184.2.2.351.015.551-.064.437-.174Zm-17.968-1.377c-.084-.324-.159-.139-.165.409s.062.813.153.588a1.9,1.9,0,0,0,.012-1Zm1.759.493c0-.584-.072-.642-.31-.265a.858.858,0,0,0-.141.748c.286.464.455.284.451-.485Zm3.15-1.019a2.816,2.816,0,0,0-.746-1.295c-.459-.373-.492-.342-.252.236a9.155,9.155,0,0,1,.436,1.6c.1.58.275.821.47.63a1.5,1.5,0,0,0,.092-1.175Zm-6.933-.5c-.492-.492-.535-.487-.535.055,0,.347.151.5.367.363.25-.154.3.027.151.563-.194.7-.175.721.167.173.306-.49.275-.727-.151-1.152Zm1.356-.642c-.084-.32-.152-.058-.152.582s.069.9.152.582a2.729,2.729,0,0,0,0-1.166Zm20.907,1.285a1.927,1.927,0,0,1,.311-1.247,4.364,4.364,0,0,0,.5-1.435c0-.267-.335.184-.747,1-.473.937-.626,1.574-.416,1.728.45.325.575.309.353-.049Zm9.69-1.444c-.08-.414-.148-.153-.151.578s.061,1.07.145.752a3.623,3.623,0,0,0,.006-1.33Zm1.468,1.492c.184-1.071.161-1.744-.05-1.519-.466.5-.715,1.768-.348,1.768a.388.388,0,0,0,.4-.25Zm-17.217-.6c-.108-.282-.268-.441-.355-.354s-.06.318.061.513C154.724,278.1,154.916,278,154.691,277.414Zm-12.75-.631c0-.081-.15-.24-.332-.352s-.332-.047-.332.147a.344.344,0,0,0,.332.352c.184-.006.333-.072.333-.152Zm-13.633-1.591c0-1.256-.166-1.129-.446.341-.13.686-.086,1.021.118.895a1.835,1.835,0,0,0,.328-1.235Zm32.362-.124c-.3-.792-.6-.516-.642.59-.034.942.007.992.393.465a1.311,1.311,0,0,0,.252-1.056Zm-30.862-.478c.21-.956-.608-2.614-1.3-2.638-.165-.006-.071.251.21.572.655.746,1.143,2.254.625,1.934a.936.936,0,0,1-.367-.726c0-.275-.16-.4-.354-.275-.235.145-.179.413.166.794.574.635.714,1.512.184,1.188-.184-.113-.332.046-.332.353,0,.892.918-.045,1.166-1.193Zm1.161.566c.351-.148.309-.184-.139-.133a.947.947,0,0,0-.774.576c-.092.321-.038.367.139.133a2.2,2.2,0,0,1,.775-.581Zm8.873.049c-.106-.265-.184-.184-.2.2-.015.351.064.551.174.437a.669.669,0,0,0,.027-.637Zm4.608-1.166c-.2-.8-.236-.816-.665-.229-.249.34-.367.761-.259.933s.307.025.446-.329c.231-.591.253-.582.275.105.013.411-.135.748-.329.748s-.248.169-.12.375c.379.614.892-.648.652-1.6Zm26.642.813c-.092-.228-.168-.041-.168.416s.075.642.168.416a1.285,1.285,0,0,0,0-.836ZM132.3,274.1c0-.275-.059-.5-.13-.5s-.217.225-.322.5-.047.5.13.5.322-.229.322-.5Zm2.327-.166c0-.184-.066-.332-.147-.332s-.24.15-.352.332-.047.332.147.332a.344.344,0,0,0,.352-.338Zm27.1-.606c-.264-.264-.836.336-.633.664.138.223.309.189.486-.1.151-.243.217-.5.147-.567ZM142.842,272.2c-.08-.414-.148-.153-.151.578s.061,1.07.145.752A3.623,3.623,0,0,0,142.842,272.2Zm13.957.682c-.106-.265-.184-.184-.2.2-.015.351.064.551.174.437a.669.669,0,0,0,.027-.637Zm2.1-1.267c.1-1.734.024-2.464-.222-2.218a6.883,6.883,0,0,0-.25,2.193c-.03,2.044.357,2.064.472.019Zm11.529,1.267c-.106-.265-.184-.184-.2.2-.015.351.064.551.174.437a.669.669,0,0,0,.027-.637ZM132.86,271.7c-.084-.324-.159-.139-.165.409s.062.813.153.588a1.9,1.9,0,0,0,.012-1Zm1.352.833a2.111,2.111,0,0,1,.288-1.223,1.574,1.574,0,0,0,.229-1.132c-.262-.425-1.167,1.777-.956,2.326s.623.572.44.024Zm27.013-.111c0-.285-.15-.426-.332-.313a.713.713,0,0,0-.332.518.324.324,0,0,0,.332.313c.183-.005.333-.239.333-.521Zm-30.751-2.806c.074-.459.055-.569-.043-.25s-.3.582-.448.582c-.367,0-.66,1.66-.41,2.306C129.768,272.76,130.137,271.681,130.474,269.615Zm27.308,2.178c-.028-.471-.172-.69-.341-.521a.837.837,0,0,0-.092.814c.295.766.49.635.435-.293Zm2.229-.028c-.263-.687-.449-.607-.449.2,0,.376.143.6.318.488a.585.585,0,0,0,.132-.689Zm-31.145-1.215c-.106-.265-.184-.184-.2.2-.015.351.064.551.174.437a.669.669,0,0,0,.027-.637Zm14.349-.071c.557.959.459.238-.12-.881-.275-.54-.717-.981-.973-.981a.745.745,0,0,1-.618-.582c-.12-.459-.16-.434-.191.128a.8.8,0,0,0,.627.883c.675.176.942.9.332.9-.184,0-.328.337-.32.748l.012.748.442-.8c.423-.763.459-.77.809-.166Zm21.668.466c0-.184-.066-.332-.147-.332s-.24.15-.352.332-.047.332.147.332a.344.344,0,0,0,.353-.339Zm-7.192-1.386c-.162-1.4-.459-1.645-.459-.388,0,.835.215,1.441.51,1.441a4.171,4.171,0,0,0-.055-1.053Zm12.741-.007c-.106-.265-.184-.184-.2.2-.015.351.064.551.174.437a.669.669,0,0,0,.027-.637Zm-10.2.249c0-.081-.15-.24-.332-.352s-.332-.047-.332.147a.344.344,0,0,0,.332.352c.186-.007.332-.073.332-.153Zm10.344-2.13c-.374-.526-.6-1.041-.495-1.143s.017-.459-.191-.794c-.3-.486-.343-.275-.2,1.054a3.185,3.185,0,0,0,.76,2.09c.861.623.937-.082.13-1.213Zm-40.6-.05c0-1.468-.492-1.441-.551.032-.028.714.084,1.214.25,1.112a1.7,1.7,0,0,0,.3-1.144Zm29.593.6c0-.537-.1-.633-.367-.362a.642.642,0,0,0-.147.734q.516.835.517-.367Zm-.77-1.326c-.106-.265-.184-.184-.2.2-.015.351.064.551.174.436A.669.669,0,0,0,158.793,266.893Zm-16.853.062c0-.184-.066-.332-.147-.332s-.24.15-.352.332-.047.332.147.332a.344.344,0,0,0,.353-.339Zm0-1.369c0-.184-.15-.24-.332-.127a.729.729,0,0,0-.332.538c0,.184.15.24.332.127a.728.728,0,0,0,.333-.544Zm17.909-.294c.13,0,.237-.3.237-.665a1.635,1.635,0,0,0-.071-.665,4.076,4.076,0,0,0-.832,2.171c.117.118.262-.022.321-.313s.213-.533.346-.533Zm-23-.728c-.106-.265-.184-.184-.2.2-.015.351.064.551.174.437a.669.669,0,0,0,.027-.637Zm3.684.5a3.622,3.622,0,0,0-1.33-.006c-.414.08-.153.148.578.151S140.85,265.147,140.531,265.064Zm29.235-1.164c-.106-.265-.184-.184-.2.2-.015.351.064.551.174.436a.669.669,0,0,0,.027-.637Zm-39.243-1.026c-.092-.229-.168-.041-.168.416s.075.642.168.416A1.285,1.285,0,0,0,130.523,262.874Zm7.535.078c.292,0,.294-.067.009-.25a1.89,1.89,0,0,1-.537-1.076c-.085-.459-.158-.084-.162.831s.062,1.4.145,1.08.329-.585.543-.587Zm21.827.5c.146.092.245-.432.221-1.162s-.165-1.325-.314-1.325-.244.262-.211.582c.117,1.149-.023,1.781-.35,1.579-.382-.236-.453.267-.092.63.133.133.3.083.361-.113s.238-.282.383-.192Zm-19.939-.844c0-.416-.144-.6-.367-.459-.255.158-.3-.083-.147-.78.13-.592.076-1.1-.13-1.225-.459-.285-.467,1.645-.007,2.5.443.826.653.815.653-.041Zm29.967-1.066c-.329-.326-.367-.288-.184.184.125.328.311.512.413.41s0-.366-.229-.592Zm-29.74-.971c-.106-.265-.184-.184-.2.2-.015.351.064.551.174.437a.669.669,0,0,0,.027-.637Zm-5.016-1.266c4.6.067,4.41-.1-.367-.32-2.378-.11-4.393-.15-4.479-.092-.262.184.771.708,1.055.533.146-.092.268.032.271.275,0,.358.054.357.282,0,.2-.313,1.116-.425,3.237-.394Zm32.138-.248c-1.326-.063-3.5-.063-4.822,0s-.241.115,2.411.115S168.622,259.117,167.3,259.053Zm16.542,21.108V258.127l7.232-.1c10.425-.151,14.091.5,17.529,3.127,3.579,2.733,4.8,9.3,2.627,14.149-1.037,2.312-3.752,5.071-4.649,4.727-.374-.144-.493-.092-.342.15.259.418-2.141,1.588-3.958,1.927a2.723,2.723,0,0,0-1.15.367,8.722,8.722,0,0,0,.817,1.348c.449.661.725,1.349.614,1.53s-.054.236.128.124c.444-.275,1.86,1.677,1.56,2.156-.137.221-.085.285.126.155s.669.215,1.049.748c.843,1.184.889,1.6.108.991-.527-.413-.539-.4-.128.122.25.318.573.5.719.415.4-.249,3.389,4.108,3.12,4.547-.143.231-.092.291.136.152s.694.252,1.132.907c.418.625,1.27,1.85,1.892,2.722,1.022,1.434,1.078,1.624.582,1.988-.7.508-.716,1.492-.031,1.492.285,0,.421-.157.3-.349a1.132,1.132,0,0,1-.016-.869c.164-.43.289-.446.713-.092a4.152,4.152,0,0,1,.839,1.035c.309.578.068.609-4.772.609h-5.094l-.562-.951c-.309-.523-.466-1.046-.349-1.164s.046-.213-.159-.213-.826-.663-1.386-1.473c-1.1-1.606-1.295-2.167-.515-1.52.551.459.551.459.662-.574.043-.407-.044-.664-.195-.571s-.178.412-.064.711c.157.408.092.469-.264.244a1.983,1.983,0,0,0-.715-.3c-.47-.009-6.258-8.851-6.033-9.216.128-.207.077-.275-.116-.156-.459.281-2.178-2.345-1.88-2.864.128-.222.109-.293-.04-.158s-.473.08-.719-.124c-.367-.308-.446,1.193-.446,8.98V302.2h-8.313Zm23.476,21.425c-.162-.262-2.2-.125-2.2.149a2.853,2.853,0,0,0,1.184.129c.651,0,1.106-.127,1.012-.279Zm-18.408-1.22.159-.831-5.061.13,2.245.117c1.966.1,2.245.2,2.245.766,0,.909.224.81.414-.184Zm2.247.5c0-.184-.225-.332-.5-.332s-.5.15-.5.332.225.332.5.332.5-.151.5-.329Zm15.062-.6a1.256,1.256,0,0,1-.938-.76c-.113-.357-.345-.563-.515-.459-.868.536.349,1.847,1.432,1.542l.754-.213Zm6.121-1.306c-.355-.355-.567-.417-.567-.164a.367.367,0,0,0,.322.4c.177,0,.23.262.117.582-.168.476-.123.507.246.163s.358-.51-.117-.986Zm-1.652.663a12.389,12.389,0,0,0-2.327,0c-.59.073-.026.132,1.255.131s1.763-.061,1.073-.134Zm-3.567-.4c0-.392-.649-.812-.887-.574s.184.887.574.887a.314.314,0,0,0,.31-.314Zm-2.656-.523c.353-.425.309-.487-.284-.4a1.964,1.964,0,0,0-.959.391c-.142.156-.071.176.158.044s.416-.081.416.113c0,.481.173.441.665-.152Zm6.675-.642c.52.321.333-.383-.275-1.047-.67-.728-1.413-.963-1.413-.446s1.144,1.965,1.276,1.609a.269.269,0,0,1,.416-.116Zm-.8-.406a.918.918,0,0,1-.222-.565c0-.208.155-.189.394.05.217.217.316.471.222.565a.286.286,0,0,1-.4-.051Zm-1.884-.609c0-.275-.15-.5-.332-.5s-.332.225-.332.5.15.5.332.5.332-.226.332-.5Zm-.6-1.568c-.3-.3-.489-.29-.809.054-.28.3-.288.376-.023.228a.459.459,0,0,1,.615.139c.122.2.31.275.417.166S208.059,295.694,207.844,295.473Zm-5.937-.786a3.234,3.234,0,0,0-1.319-.969c-.943-.448-1.086-.637-.764-1.023.236-.285.258-.474.055-.474-.184,0-.421.219-.524.486-.178.463,1.186,1.841,1.823,1.841a.326.326,0,0,1,.287.352c0,.194-.15.26-.332.147s-.332-.06-.332.119c0,.466.791.675,1.05.275a.943.943,0,0,0,.058-.755Zm8.037.859a1.055,1.055,0,0,0-.815-.332.9.9,0,0,1-.8-.5c-.106-.275-.051-.5.12-.5s.23-.213.13-.473c-.147-.384-.3-.352-.82.166-.8.8-.8.84.109,1.149.411.139,1.047.367,1.413.5s.711.265.768.284.01-.117-.1-.3Zm-7.565-1.81a1.5,1.5,0,0,1-.608-.887c-.02-.363-.064-.367-.2-.028-.191.476.878,1.851,1.193,1.535.107-.107-.066-.386-.385-.62Zm5.256-.767c-.06-.5-.13-1.064-.156-1.247s-.2-.073-.385.245a1.183,1.183,0,0,0,.022,1.247c.486.913.643.838.515-.247Zm-2.167-1.56c-.275-.332-.275-.482.01-.576.251-.084.2-.283-.16-.578-.474-.393-.513-.374-.312.15.152.4.106.523-.138.374-.263-.162-.275.081-.057.858.171.6.316,1.161.321,1.254s.167-.1.359-.43a.809.809,0,0,0-.024-1.048Zm-5.474-.434c-.108-.108-.4.078-.642.416-.434.594-.459.593-.818-.025-.465-.8-.509-.318-.05.541.332.62.356.619,1.025-.05.377-.377.6-.774.487-.883ZM202.207,292a1.048,1.048,0,0,1-.442-.888c-.015-.4-.1-.529-.2-.294-.242.6.124,1.407.629,1.377.334-.02.336-.062.01-.194Zm.918-1.11c0-.184-.066-.332-.147-.332s-.24.15-.352.332-.047.332.147.332a.344.344,0,0,0,.352-.332Zm-5.27-1.768c-.207-.25-.275-.551-.158-.673s.044-.218-.169-.218c-.5,0-.5.753.005,1.258.525.525.8.211.322-.367Zm5.769-.227a.774.774,0,0,0-.6-.328c-.238,0-.2.134.1.328.641.41.752.41.5,0Zm-6.727-.642c.117-.449.029-.587-.294-.459-.253.1-.459.011-.459-.191a.362.362,0,0,1,.352-.367c.194,0,.251-.162.128-.362-.158-.256-.327-.258-.578-.006s-.224.6.092,1.193c.538,1.01.551,1.01.758.2Zm-7.434-.118a2.57,2.57,0,0,1-.722-.9c-.134-.344-.2-.275-.22.225-.023.623.3.887,1.3,1.056.09.017-.073-.152-.363-.375Zm13.864-1.3c-.3-.169-.448-.485-.326-.7.154-.275.085-.268-.225.019-.367.344-.337.5.2.942.618.5.619.518.018.326-.542-.173-.569-.128-.191.327.4.48.466.476.754-.039.232-.415.17-.648-.231-.873Zm-5.189.4c0-.184-.066-.332-.147-.332s-.24.15-.352.332-.047.332.147.332a.344.344,0,0,0,.35-.33Zm-7.18-.536c.147-.384.062-.481-.3-.343-.325.125-.5,0-.5-.362,0-.447-.081-.473-.416-.133s-.287.516.229.9c.792.585.734.588.986-.06Zm6.848-.5c0-.184-.15-.24-.332-.127a.729.729,0,0,0-.332.538c0,.184.15.24.332.127a.729.729,0,0,0,.328-.535Zm-2.426-.459c-.22-.239-.513-.367-.65-.283-.4.242-.287-.375.164-.9.228-.265.139-.24-.2.058-.515.459-.544.642-.184,1.214.231.367.612.6.845.511.332-.128.338-.258.024-.6Zm-6.654-1.079c-.084-.324-.159-.139-.165.409s.062.813.153.588a1.9,1.9,0,0,0,.012-1Zm8.415.742c0-.275-.145-.5-.322-.5s-.236.225-.13.5.251.5.322.5.128-.218.128-.491Zm-5.772-.663c-.092-.236.143-.759.519-1.163.543-.583.742-.642.968-.285.192.3.285.319.289.052.01-.814-.784-.854-1.422-.073-.361.441-.826.753-1.027.694-.256-.073-.251.017.018.29a.938.938,0,0,1,.193.909c-.134.35-.066.432.215.259a.594.594,0,0,0,.247-.683Zm10.08-.918a2.167,2.167,0,0,1-.677-1.176c-.015-.313-.1-.4-.184-.189s-.485.319-.888.246c-.507-.092-.452-.023.184.23.5.2.836.495.734.654a.577.577,0,0,1-.667.1c-.269-.1-.488-.032-.488.158,0,.327.8.551,2.064.571.5.009.495-.058-.084-.6Zm-10.462-.581c.113-.184.047-.332-.147-.332a.344.344,0,0,0-.352.332c0,.184.066.332.147.332s.239-.142.352-.325Zm7.647,0c.113-.184-.028-.332-.313-.332s-.519.15-.519.332a.324.324,0,0,0,.313.332.713.713,0,0,0,.518-.325Zm-6.817-.8c0-.072-.232-.22-.516-.329s-.429-.058-.313.13c.195.323.828.474.828.206Zm9.465-.887c-.234-.378-1.152-.418-1.152-.05,0,.144.3.284.673.312S201.389,281.722,201.283,281.552Zm1.841-.642c0-.184.262-.337.582-.343.7-.013,1.818-.8,1.536-1.086-.109-.109-.557.035-.994.321-.642.418-.892.44-1.292.108-.344-.285-.5-.3-.5-.039,0,.206-.225.374-.5.374s-.5.155-.5.344c0,.238.2.238.642,0,.909-.486,1.17-.428.687.154-.286.345-.3.5-.04.5a.356.356,0,0,0,.374-.332Zm4.656-1.829c.429-.459.706-.831.615-.831a3.938,3.938,0,0,0-.947.831c-.429.459-.706.831-.615.831a3.937,3.937,0,0,0,.946-.827Zm-15.064.01a1.744,1.744,0,0,1,.97.25,1.18,1.18,0,0,0,.723.24c.376,0,.4-.1.1-.459-.43-.519-1.8-.976-1.507-.5.1.166-.047.3-.332.3a.485.485,0,0,1-.523-.416q0-.416-.328.084c-.383.592-.453,1.342-.078.831a1.361,1.361,0,0,1,.975-.322Zm5.529-.092a1.864,1.864,0,0,0-.918-.389c-.194.015-.148.107.1.207.36.143.367.234.032.44-.261.161-.083.24.466.209.795-.046.826-.092.32-.467Zm8.369.253c.117-.188-.017-.244-.313-.13-.576.221-.682.459-.2.459a.708.708,0,0,0,.514-.325Zm-4.382-1.786c.227.13.275.1.117-.077a1.179,1.179,0,0,0-.582-.344c-.168-.023-.459-.061-.657-.084s-.258-.194-.143-.379a.413.413,0,0,1,.57-.115c.2.125.266.07.147-.123s0-.525.264-.742c1.572-1.3,2.264-4.505,1.495-6.912-1.01-3.148-3.487-4.215-9.544-4.1l-1.744.032V270.9c0,4.811-.1,6.277-.416,6.265-1.337-.05-1.573.2-.416.44,2.274.471,6.358.359,7.787-.213.97-.388,1.475-.434,1.919-.176.331.193.415.355.184.361a.4.4,0,0,0-.416.357,1.535,1.535,0,0,0,.416.8c.341.367.434.275.52-.519.069-.634.24-.891.5-.743Zm-6.34,1.229a1.285,1.285,0,0,0-.831,0c-.229.092-.041.168.416.168S196.119,278.788,195.892,278.7Zm4.405-.112c.262-.423-.508-.423-1.164,0-.406.262-.367.323.229.328a1.229,1.229,0,0,0,.934-.324Zm-11.272-.908c-.338-.338-.617.171-.34.619.209.339.288.34.4,0a.683.683,0,0,0-.061-.621Zm11.1.04c0-.072-.225-.13-.5-.13s-.5.145-.5.322.225.236.5.13.5-.246.5-.318Zm7.828.184a.568.568,0,0,1,.668-.184c.3.117.382,0,.241-.367-.154-.4-.067-.485.345-.328.3.117.537.106.517-.026-.092-.633.074-1.089.341-.924.163.1.374-.015.467-.258a.3.3,0,0,0-.293-.441.826.826,0,0,0-.656.609c-.106.335-.325.609-.486.609a3.556,3.556,0,0,0-1.193.832c-.494.459-.734.831-.535.831a.783.783,0,0,0,.581-.355Zm-17.3-1.64a.734.734,0,0,0-.022-.7c-.223-.362-.792.193-.8.784-.011.363.586.3.826-.084Zm17.789-.7V275.1c0-.452-.5-.134-.715.459-.189.51-.133.628.233.488.265-.1.482-.318.482-.482Zm-16.73-.359c-.106-.265-.184-.184-.2.2-.015.351.064.551.174.437a.669.669,0,0,0,.027-.637Zm-1.98-.139a.669.669,0,0,0-.637-.027c-.265.106-.184.184.2.2.351.015.551-.064.437-.174Zm14.813-.367c-.092-.235-.011-.428.176-.428a.616.616,0,0,1,.493.416c.122.332.24.332.593,0s.34-.416-.125-.416c-.311,0-.565-.168-.565-.374,0-.262-.143-.254-.485.028a.817.817,0,0,1-.826.19c-.212-.131-.26.006-.124.359.161.418.1.5-.221.3-.257-.159-.36-.142-.247.04.3.485,1.523.381,1.333-.115Zm5.893-.886a1.761,1.761,0,0,0-.5-1.2c-.344-.286-.5-.3-.5-.04a.372.372,0,0,0,.367.374c.227,0,.288.319.16.831-.12.479-.065.831.13.831s.339-.356.339-.79Zm1-.246c0-.184-.15-.24-.332-.127a.729.729,0,0,0-.332.538c0,.184.15.24.332.127a.729.729,0,0,0,.331-.541Zm-4.322-.238a.508.508,0,1,0-.5.609.564.564,0,0,0,.5-.613Zm-2.493-.055c.113-.184.047-.332-.147-.332a.344.344,0,0,0-.352.332c0,.184.066.332.147.332s.239-.153.351-.336Zm.918-.864c.3-.3-.113-1.155-.459-.943a.851.851,0,0,0-.3.664c0,.485.4.632.756.276Zm5.807,0a.669.669,0,0,0-.637-.027c-.265.106-.184.184.2.2.351.015.551-.064.437-.174Zm-6.56-1.609c0-.081-.15-.24-.332-.352s-.332-.047-.332.147a.344.344,0,0,0,.332.352c.183-.006.332-.072.332-.152Zm1.474-.876c-.311-.343-.734-.519-.936-.39-.238.15-.161.275.211.349a.7.7,0,0,1,.582.609c0,.275.16.4.354.275C206.7,270.622,206.631,270.331,206.261,269.922Zm1.187-.121c0-.081-.15-.24-.332-.352s-.332-.047-.332.147a.344.344,0,0,0,.332.352c.183-.007.332-.072.332-.152Zm-2.327-.858a2.727,2.727,0,0,0-.482-.843c-.459-.616-.474-.607-.3.184.14.654.1.725-.178.332-.309-.433-.357-.426-.362.062,0,.358.236.543.66.511.365-.031.664-.142.664-.251Zm-1.607-2.065c-.247-.247-.29-.117-.145.436.117.45.268.6.351.352a.851.851,0,0,0-.206-.793Zm3.5-.5c-.084-.324-.159-.139-.165.409s.062.813.153.588a1.9,1.9,0,0,0,.012-1Zm-2.581.2c-.292-.545-.281-.768.05-.972.236-.146-.2-.2-.98-.128-1.049.1-1.349.031-1.177-.275s.1-.291-.23.018c-.394.367-.393.472,0,.718a1.156,1.156,0,0,0,.891.125c.234-.092.62.149.858.53.569.91,1.071.9.583-.015Zm6.673.41c0-.163-.225-.383-.5-.488-.295-.113-.5-.612-.5-1.219,0-.663.13-.947.367-.8.261.162.268.048.025-.4-.4-.723-1.54-2.155-1.226-1.536.286.566-.319.528-.8-.051-.291-.351-.292-.5,0-.594.242-.081.162-.307-.217-.614-.483-.393-.545-.4-.318-.02.184.308.075.617-.328.911-.335.245-.5.551-.367.688s.376.028.539-.235c.231-.374.374-.275.653.459.286.753.45.863.82.551.352-.293.523-.288.712.017.149.24-.074.671-.551,1.069-.551.459-.617.6-.2.449.348-.127.517-.084.4.1s.05.7.353,1.16c.546.832,1.139,1.116,1.139.543Zm-22.38-2.937c-.084-.324-.159-.139-.165.409s.062.813.153.588a1.9,1.9,0,0,0,.012-1Zm3.763-.066c0-.17.262-.374.582-.453s.245-.11-.166-.069-.748-.054-.748-.212a.34.34,0,0,0-.374-.286c-.258,0-.245.154.04.5.261.315.284.5.061.5a.754.754,0,0,1-.563-.338.385.385,0,0,0-.524-.143.367.367,0,0,0-.124.5c.247.4,1.813.4,1.813-.007Zm4.822-.023c-.116-.184.148-.332.6-.332a3.125,3.125,0,0,0,1.6-.616,6.735,6.735,0,0,1,1.292-.8c.275-.1-.1-.2-.831-.211-.943-.015-1.188.069-.841.288.765.484.141.8-1.652.843-1.757.039-2.359.29-1.494.621.307.117.445.065.328-.125s.03-.329.316-.329.5.112.479.25c-.067.424.031.748.225.748.1,0,.092-.15-.019-.332Zm2.071.131a.669.669,0,0,0-.637-.027c-.265.106-.184.184.2.2.351.015.551-.064.437-.174Zm-6.64-2.019a3.624,3.624,0,0,0-1.33-.006c-.414.08-.153.148.578.151S193.059,262.161,192.741,262.077Zm9.722-.437c0-.184-.225-.332-.5-.332s-.5.15-.5.332.225.332.5.332.495-.161.495-.343Zm-13.215-.22a1.285,1.285,0,0,0-.831,0c-.229.092-.041.168.416.168s.639-.091.41-.183Zm6.149.019a.669.669,0,0,0-.637-.027c-.265.106-.184.184.2.2.351.015.551-.064.437-.174Zm-4.233-.464c0-.184-.308-.332-.685-.332s-.592.15-.479.332a.879.879,0,0,0,.685.332c.253-.01.469-.16.469-.343Zm13.965-.532a4.9,4.9,0,0,0-1.01-.419c-.551-.194-.928-.221-.826-.061s-.008.359-.238.443.143.141.826.128a5.849,5.849,0,0,0,1.247-.092Zm-9.56-.686a1.285,1.285,0,0,0-.831,0c-.229.092-.041.168.416.168s.635-.086.407-.178Zm-3.824-.687a14.488,14.488,0,0,0-2.493,0c-.686.072-.125.13,1.247.13s1.924-.069,1.237-.14Zm7.481.022a1.285,1.285,0,0,0-.831,0c-.228.092-.041.168.416.168S199.453,259.185,199.226,259.092Zm51.955,16.244c-.8-.184-1-.417-1.032-1.143a2.828,2.828,0,0,1,.041-.911c.041,0,.711.225,1.489.5,2.789.984,5.2.4,5.965-1.456.8-1.927-.039-3.131-3.517-5.048-3.039-1.678-4.114-2.9-4.114-4.674,0-2.914,1.733-4.28,5.427-4.28,2.676,0,3.218.2,3.218,1.163,0,.758,0,.758-1.725.253-2.131-.625-3.755-.29-4.687.965-1.285,1.732-.416,2.973,3.763,5.367,3.028,1.735,3.821,2.747,3.791,4.831a3.946,3.946,0,0,1-2.386,3.894,13.116,13.116,0,0,1-6.241.545Zm41.1-.142c-2.523-.929-3-2.632-3.016-10.641l-.008-5.9h2v6.567c0,5.922.065,6.671.649,7.629a3.424,3.424,0,0,0,4.405,1.285c1.871-.887,2.045-1.6,2.188-8.917l.128-6.567h1.6v6.567c0,7.172-.209,8.148-2.026,9.479-1.088.8-4.362,1.071-5.922.5Zm43.832.1a5.452,5.452,0,0,1-3.53-3.282c-.8-1.639-.918-2.266-.923-5.038-.006-2.861.092-3.359.99-5.161,1.306-2.613,2.6-3.487,5.154-3.487a5.126,5.126,0,0,1,4.988,3.006c.764,1.362.831,1.824.831,5.639,0,3.969-.042,4.229-.946,5.766a5.506,5.506,0,0,1-6.564,2.561Zm3.6-1.536c1.638-1.059,2.405-4.222,2.053-8.46-.336-4.038-1.718-5.979-4.261-5.979-2.478,0-3.849,2.784-3.844,7.814,0,2.778.128,3.579.758,4.869,1.188,2.431,3.212,3.1,5.3,1.756Zm-110.3-6.791V258.65h1.663v16.614h-1.663Zm6.318-.1v-8.412l1.12.13c1.1.128,1.178.251,4.572,7.165l3.452,7.034.092-7.185.092-7.184,1.652.316v16.536h-2.2l-3.427-6.982a61.672,61.672,0,0,0-3.72-6.982,42.005,42.005,0,0,0-.294,6.982c0,6.761-.021,6.982-.665,6.982s-.665-.222-.665-8.412Zm29.261.6v-7.827h-2c-1.521,0-2-.115-2-.482,0-.394.879-.5,4.822-.582,4.405-.092,4.822-.05,4.822.482,0,.489-.318.582-2,.582h-2v15.629h-1.663Zm7.984-.5v-8.313h2v16.613h-2.01Zm8.313.5v-7.827h-2c-1.552,0-2-.111-2-.5,0-.421.776-.5,4.988-.5,4.139,0,4.988.083,4.988.483,0,.358-.521.508-2.019.582l-2.019.1.036,7.731.036,7.731h-2.019Zm25.271,0v-7.827h-2c-1.679,0-2-.092-2-.582,0-.528.452-.582,4.822-.582s4.822.054,4.822.582c0,.489-.317.582-2,.582H308.2v15.629h-1.663Zm7.984-.582v-8.411h3.99c3.579,0,3.99.06,3.99.582s-.367.582-2.993.582h-2.993v6.318h2.827c2.47,0,2.827.073,2.828.582s-.314.57-2.827.474l-2.828-.107v7.032h3.144c2.937,0,3.159.047,3.159.665s-.222.665-4.156.665h-4.16Zm32.919.1V258.69l3.991-.1c3.619-.092,3.991-.049,3.99.479,0,.511-.367.582-2.994.582h-2.993v6.318h2.827c2.294,0,2.827.092,2.827.5s-.536.5-2.827.5h-2.827v8.3h-2.014Z" transform="translate(-28.228 -100.706)" fill="#97bd10"/>
        <path id="Path_8" data-name="Path 8" d="M253.866,303.3l-.748-.106V287.943h-2c-1.773,0-2-.074-2-.665,0-.636.222-.665,5.012-.665,4.594,0,5,.049,4.9.582-.092.466-.521.6-2.18.681l-2.069.1-.092,7.714-.092,7.715Zm7.37-.032c-.076-.076-.139-3.854-.139-8.4v-8.26h4.181c3.8,0,4.171.052,4.069.582-.092.5-.567.6-3.184.677l-3.072.092V293.9l2.906.092c2.458.082,2.923.184,3.017.678.1.519-.212.582-2.906.582h-3.017v6.982h3.159c2.787,0,3.159.069,3.159.582s-.413.582-4.018.582a33.425,33.425,0,0,1-4.156-.139Zm14.313-.315c-2.609-1.591-3.586-3.881-3.586-8.41,0-5.217,2.173-8.1,6.092-8.076,2.814.017,4.589,1.251,5.176,3.6.2.813.144.865-.983.865-.862,0-1.2-.145-1.2-.515a3.437,3.437,0,0,0-1.969-2.753c-3.551-1.238-6.024,3.255-5.032,9.141.642,3.818,2.138,5.541,4.8,5.541a6.721,6.721,0,0,0,2.518-.551c1.382-.689,1.341-.693,1.341.128,0,1.544-5.114,2.276-7.163,1.026Zm10.489-7.942v-8.4h.82c.818,0,.82.011.918,3.741l.092,3.741,6.817.19v-7.67h2v16.547l-.826.158a1.678,1.678,0,0,1-1-.016,26.462,26.462,0,0,1-.174-4.109v-3.934H287.7V303.4h-1.663Zm14.959.028v-8.423h2.333L306.7,293.6a63.747,63.747,0,0,0,3.654,6.982,43.943,43.943,0,0,0,.281-6.982v-6.982h1.5l-.092,8.313c-.071,6.241-.2,8.319-.5,8.338a10.2,10.2,0,0,0-1.016.141c-.5.092-1.266-1.214-4.156-7.091l-3.545-7.207-.166,7.122c-.165,7.094-.169,7.122-.918,7.177l-.748.055v-8.423Zm18.053,7.881c-3.127-1.906-4.387-8.454-2.463-12.8,1.727-3.9,6.5-4.977,9.325-2.092,1.523,1.56,2.121,3.957,1.962,7.863-.15,3.684-.96,5.616-2.9,6.924a6.376,6.376,0,0,1-5.923.107Zm5.025-1.358c1.478-1.3,2-3.462,1.8-7.5-.174-3.637-.906-5.353-2.643-6.2a2.533,2.533,0,0,0-2.493-.166,3.015,3.015,0,0,0-2.046,1.94c-.97,1.953-1.317,6.035-.746,8.778.806,3.873,3.641,5.333,6.123,3.153Zm7.513-6.55v-8.4h2.027l-.1,15.461,2.862.092c2.442.082,2.862.184,2.862.665,0,.5-.437.569-3.824.569h-3.824Zm12.708,8.009c-2.182-1.076-3.4-3.91-3.4-7.926,0-4.4,1.437-7.292,4.137-8.323a5.126,5.126,0,0,1,5.9,1.2c1.406,1.478,1.878,2.82,2.151,6.122.219,2.645-.466,5.957-1.547,7.475-1.347,1.891-4.9,2.6-7.247,1.446Zm5.1-1.607c2.047-2.17,2.442-8.438.74-11.752-1.527-2.973-4.9-2.914-6.412.114-.551,1.109-.665,2-.665,5.323,0,4.447.5,6.1,2.122,6.981a3.2,3.2,0,0,0,4.216-.663Zm10.116,1.544c-2.547-1.355-3.91-4.956-3.548-9.372.223-2.721,1.01-4.735,2.275-5.8,2.64-2.222,7.317-1.738,8.94.923.944,1.548.854,2.228-.3,2.228-.8,0-1.031-.212-1.468-1.337-1.01-2.57-4.124-2.9-6.025-.642-1.673,1.988-1.974,7.609-.576,10.768a4.107,4.107,0,0,0,4.437,2.748c2.409-.207,2.588-.491,2.588-4.1v-3.12h-1.964c-1.8,0-1.949-.055-1.79-.665s.453-.665,2.961-.665h2.788v8.345l-1.413.642a9.654,9.654,0,0,1-6.9.039Zm15.3-3.438V295.8l-2.493-4.435c-1.372-2.439-2.493-4.505-2.493-4.589s.423-.155.941-.155c.849,0,1.131.34,2.892,3.487a21.674,21.674,0,0,0,2.19,3.487,21.546,21.546,0,0,0,2.18-3.487c1.728-3.1,2.041-3.487,2.855-3.487.5,0,.918.058.918.136s-1.193,2.147-2.661,4.6l-2.661,4.458v7.426h-1.663ZM273.235,275.368c-.8-.184-1-.416-1.031-1.143a2.824,2.824,0,0,1,.041-.911c.041,0,.711.225,1.489.5,2.788.984,5.2.395,5.965-1.456.8-1.927-.039-3.131-3.517-5.048-3.039-1.678-4.114-2.9-4.114-4.674,0-2.914,1.733-4.28,5.427-4.28,2.676,0,3.218.2,3.218,1.163,0,.758,0,.758-1.725.253-2.131-.625-3.755-.29-4.687.965-1.285,1.732-.416,2.973,3.763,5.367,3.029,1.735,3.821,2.747,3.791,4.831a3.946,3.946,0,0,1-2.386,3.894,13.116,13.116,0,0,1-6.241.545Zm41.1-.142c-2.523-.929-3.006-2.632-3.016-10.641l-.008-5.9h2v6.566c0,5.922.065,6.671.649,7.629a3.424,3.424,0,0,0,4.405,1.285c1.87-.887,2.045-1.6,2.188-8.917l.128-6.567h1.6v6.57c0,7.172-.209,8.148-2.026,9.479-1.087.8-4.362,1.071-5.922.5Zm43.832.1a5.451,5.451,0,0,1-3.531-3.282c-.8-1.639-.918-2.266-.923-5.038-.006-2.861.092-3.359.99-5.161,1.306-2.613,2.6-3.487,5.154-3.487a5.126,5.126,0,0,1,4.988,3.006c.764,1.362.831,1.824.831,5.639,0,3.969-.042,4.229-.946,5.766a5.506,5.506,0,0,1-6.564,2.561Zm3.6-1.536c1.638-1.059,2.405-4.222,2.053-8.46-.336-4.038-1.718-5.979-4.261-5.979-2.478,0-3.849,2.784-3.844,7.814,0,2.778.128,3.579.758,4.869,1.188,2.431,3.212,3.1,5.3,1.756Zm-110.3-6.793V258.68h1.663v16.627h-1.663Zm6.318-.1v-8.412l1.12.13c1.1.128,1.178.251,4.572,7.165l3.452,7.034.092-7.185.092-7.185,1.652.316V275.3h-2.2l-3.427-6.982a61.672,61.672,0,0,0-3.72-6.982,42,42,0,0,0-.294,6.982c0,6.761-.021,6.982-.665,6.982s-.665-.222-.665-8.412Zm29.261.6v-7.814h-2c-1.521,0-2-.115-2-.482,0-.394.879-.5,4.822-.582,4.405-.092,4.822-.05,4.822.482,0,.489-.318.582-2,.582h-2v15.629h-1.663Zm7.984-.5v-8.313h2v16.626h-2Zm8.313.5v-7.814h-2c-1.552,0-2-.111-2-.5,0-.421.775-.5,4.988-.5,4.139,0,4.988.083,4.988.483,0,.358-.521.508-2.019.582l-2.019.1.036,7.731.036,7.731h-2.019Zm25.271,0v-7.814h-2c-1.679,0-2-.092-2-.582,0-.528.452-.582,4.822-.582s4.822.054,4.822.582c0,.489-.317.582-2,.582h-2v15.629H328.6Zm7.984-.582v-8.4h3.99c3.579,0,3.99.06,3.99.582s-.367.582-2.993.582h-2.993V266h2.827c2.47,0,2.827.073,2.827.582s-.314.57-2.827.474l-2.828-.107v7.032h3.159c2.937,0,3.159.047,3.159.665s-.222.665-4.156.665h-4.167Zm32.919.1v-8.293l3.991-.1c3.619-.092,3.991-.049,3.99.479,0,.511-.367.582-2.994.582H371.5V266h2.827c2.294,0,2.827.092,2.827.5s-.536.5-2.827.5H371.5v8.313h-2Z" transform="translate(-50.289 -100.751)" fill="#6d6d6d"/>
      </g>
    </g>
  </g>
</svg>
